<?xml version="1.0" encoding="utf-8"?>
<!-- Generator: Adobe Illustrator 24.0.0, SVG Export Plug-In . SVG Version: 6.00 Build 0)  -->
<svg version="1.1" id="Layer_1" xmlns="http://www.w3.org/2000/svg" xmlns:xlink="http://www.w3.org/1999/xlink" x="0px" y="0px"
	 viewBox="0 0 800 800" style="enable-background:new 0 0 800 800;" xml:space="preserve">
<style type="text/css">
	.st0{fill:#1A3763;}
	.st1{fill:#6DADDD;}
</style>
<g>
	<path class="st1" d="M566.84,406.79c-0.3,83.47-63.43,166.67-167.25,166.61c-104.15-0.06-166.96-84.62-166.25-166.74
		c0.68-77.78,57.21-165.59,167.08-166.39C492.19,239.6,566.9,315.29,566.84,406.79z M281.42,415.94c-8.08,0-16.17,0.22-24.24-0.09
		c-4.38-0.17-5.56,1.33-5.12,5.54c2.82,26.91,12.15,51.27,27.99,73.19c1.64,2.26,2.95,2.71,5.39,1.1
		c9.8-6.47,20.28-11.65,31.28-15.75c2.84-1.06,3.51-2.38,2.72-5.4c-4.64-17.61-7.61-35.52-8.16-53.75
		c-0.12-4.11-1.92-5.01-5.63-4.91C297.58,416.1,289.5,415.94,281.42,415.94z M518.69,415.94c-8.28,0-16.57,0.15-24.84-0.07
		c-3.65-0.1-4.99,1.17-5.11,4.8c-0.58,18.23-3.55,36.13-8.13,53.76c-0.76,2.93-0.36,4.37,2.59,5.46
		c11.01,4.06,21.46,9.31,31.29,15.73c2.37,1.55,3.73,1.39,5.42-0.95c15.94-22.1,25.33-46.65,28.08-73.78c0.44-4.36-1.32-5.09-5.06-5
		C534.85,416.08,526.77,415.94,518.69,415.94z M281.43,397.75c8.28,0,16.56-0.16,24.83,0.07c3.73,0.11,4.9-1.3,5.01-4.85
		c0.59-18.22,3.58-36.1,8.14-53.73c0.66-2.54,0.62-4.01-2.24-5.11c-11.33-4.32-22.2-9.62-32.32-16.33
		c-2.05-1.36-3.19-0.73-4.45,0.99c-16.3,22.35-25.88,47.24-28.4,74.83c-0.3,3.24,0.81,4.23,3.98,4.17
		C264.47,397.64,272.95,397.75,281.43,397.75z M518.79,397.76c7.87,0,15.76-0.23,23.62,0.09c4.4,0.18,6.09-0.83,5.55-5.64
		c-2.95-26.65-12.11-50.85-27.76-72.61c-1.65-2.3-2.92-3.26-5.77-1.37c-9.76,6.51-20.28,11.61-31.24,15.78
		c-2.51,0.95-3.49,2.02-2.73,4.88c4.71,17.8,7.69,35.89,8.27,54.31c0.12,3.85,1.76,4.7,5.24,4.62
		C502.23,397.62,510.51,397.76,518.79,397.76z M360.61,415.94c-8.68,0-17.37,0.21-26.04-0.09c-4.4-0.15-5.43,1.41-5.17,5.59
		c0.97,15.97,3.55,31.64,7.35,47.17c0.82,3.32,1.78,4.11,5.28,3.22c14.5-3.69,29.23-6.14,44.21-6.55c3.82-0.1,4.75-1.69,4.71-5.17
		c-0.13-13.12-0.15-26.25,0.01-39.37c0.04-3.68-1.22-4.96-4.91-4.86C377.58,416.09,369.09,415.94,360.61,415.94z M440.21,415.94
		c-8.68,0-17.37,0.11-26.05-0.06c-3.46-0.07-5.16,0.75-5.11,4.66c0.17,13.32,0.13,26.65,0.02,39.98c-0.03,3.3,1.07,4.64,4.5,4.74
		c15.19,0.45,30.1,2.95,44.81,6.65c2.72,0.69,3.97,0.48,4.71-2.52c3.94-16.11,6.72-32.37,7.55-48.96c0.17-3.5-0.95-4.62-4.39-4.55
		C457.57,416.06,448.89,415.95,440.21,415.94z M360,397.75c8.87,0,17.75-0.09,26.62,0.05c3.02,0.05,4.35-0.82,4.32-4.08
		c-0.12-13.71-0.08-27.43-0.03-41.14c0.01-2.4-0.64-3.61-3.36-3.77c-15.52-0.91-30.88-2.94-45.94-6.92
		c-2.59-0.68-4.02-0.18-4.74,2.79c-3.95,16.09-6.71,32.34-7.5,48.91c-0.15,3.2,0.84,4.26,4.01,4.21
		C342.25,397.65,351.12,397.75,360,397.75z M439.88,397.75c8.67,0,17.35-0.12,26.02,0.06c3.53,0.07,4.99-0.69,4.76-4.69
		c-0.94-16.16-3.57-32-7.32-47.73c-0.95-3.98-2.71-4.12-5.97-3.25c-14.26,3.83-28.86,5.67-43.56,6.55
		c-3.66,0.22-4.81,1.31-4.76,4.95c0.18,13.11,0.17,26.22,0.01,39.33c-0.05,3.65,1.09,4.95,4.81,4.85
		C422.53,397.6,431.2,397.75,439.88,397.75z M390.9,519.28c0-10.3-0.14-20.6,0.07-30.89c0.08-3.9-1-5.28-5.11-5
		c-12.72,0.84-25.22,2.81-37.66,5.56c-4.05,0.89-4.73,2.21-3.28,6.06c6.78,18.01,15.72,34.85,25.68,51.3
		c3.97,6.57,9.13,8.14,15.76,8.69c3.42,0.28,4.65-0.7,4.6-4.22C390.79,540.28,390.9,529.78,390.9,519.28z M409.11,518.86
		c0,10.5-0.02,21,0.03,31.5c0.01,1.54-0.53,3.35,1.1,4.45c2.14,1.44,13.93-1.37,15.64-3.79c12.36-17.59,21.93-36.64,29.51-56.73
		c1.33-3.51,0.07-4.43-3.17-5.19c-12.4-2.91-24.93-4.78-37.64-5.68c-4.21-0.3-5.68,0.79-5.56,5.17
		C409.3,498.67,409.11,508.77,409.11,518.86z M390.9,295.03c0-10.5,0.04-21-0.04-31.5c-0.01-1.61,0.79-3.7-1.78-4.52
		c-4.51-1.44-13.35,1.47-16.11,5.49c-11.58,16.88-20.73,35-27.98,54.14c-1.63,4.29-0.67,5.35,3.54,6.31
		c12.24,2.79,24.61,4.33,37.06,5.61c4.48,0.46,5.49-1.14,5.39-5.26C390.75,315.22,390.9,305.12,390.9,295.03z M409.11,294.52
		c0,10.5,0.12,21-0.06,31.5c-0.06,3.7,1.03,4.94,4.87,4.58c12.87-1.22,25.65-2.8,38.26-5.78c3.74-0.88,4.38-2.1,3.03-5.69
		c-6.85-18.19-15.76-35.29-26-51.8c-3.82-6.16-8.59-8.18-15.34-8.36c-3.89-0.11-4.88,1.04-4.82,4.68
		C409.22,273.93,409.11,284.23,409.11,294.52z M450.62,267.3c9.28,15.97,16.65,31.16,22.3,47.16c0.57,1.62,1,3.8,3.65,2.71
		c9.92-4.09,19.76-8.35,28.82-14.89C489.67,286.79,472.23,275.29,450.62,267.3z M349.39,267.29c-21.68,8.19-39.37,19.51-54.75,35.11
		c8.99,6.06,18.25,10.39,27.73,14.37c3.02,1.27,3.89,0.04,4.75-2.39C332.72,298.37,340.15,283.21,349.39,267.29z M451.49,545.24
		c1.48,0,2.11,0.17,2.6-0.02c18.44-7.13,34.64-17.73,48.97-31.32c2.74-2.6,1.09-3.46-1.01-4.74c-7.57-4.61-15.55-8.37-23.7-11.84
		c-3.14-1.34-4.48-0.82-5.61,2.47c-3.98,11.61-9.11,22.75-14.79,33.63C455.96,537.23,453.83,540.97,451.49,545.24z M347.54,545.55
		c0.14-0.85,0.38-1.3,0.24-1.55c-8.17-14.63-15.54-29.62-21.02-45.48c-1.04-3.02-2.83-2.06-4.69-1.3
		c-8.23,3.34-16.15,7.29-23.84,11.74c-3.31,1.91-3.12,3.22-0.52,5.64c9.5,8.85,19.81,16.54,31.24,22.72
		C334.89,540.53,340.87,543.71,347.54,545.55z"/>
	<g>
		<path class="st1" d="M644.09,351.66c0.08-42.68,0.12-108.44-0.28-131.07c-0.3-16.88-12.62-30.5-29.09-34.31
			c-6.21-1.44-12.49-1.13-18.7-0.83c-5.13,0.24-6.96-0.94-6.82-6.53c0.42-16.56,0.23-33.13,0.13-49.69
			c-0.17-27.49-22.42-44.65-49.09-37.98c-124.22,31.05-248.45,62.09-372.67,93.13c-10.49,2.62-11.64,4.1-11.64,14.94
			c0,108.65,0,285.24,0,398.8c-0.07,22.41-0.13,44.82,0.15,67.23c0.23,18.14,9.1,31.45,25.05,39.89c4.02,2.13,8.53,3.35,12.81,4.98
			c137.39,0,274.77,0,412.16,0c0.29-0.26,0.54-0.67,0.88-0.77c26.21-7.9,37.13-22.62,37.14-50.16c0.01-102.41,0-204.82,0-307.23
			C644.1,351.92,644.09,351.79,644.09,351.66z M243.26,184.26c34-8.51,68.01-17.03,102.01-25.53
			c65.72-16.43,131.44-32.86,197.16-49.29c4.89-1.22,9.71-2.57,14.85-0.84c8.2,2.75,13.67,9.3,13.77,17.93
			c0.2,18.17-0.09,36.35,0.22,54.51c0.09,5.09-2.85,4.27-5.81,4.27c-34.73,0-69.46,0-104.19,0c-70.47,0-140.94,0-211.41,0
			c-2.21,0-4.42,0-6.63,0C243.24,184.96,243.25,184.61,243.26,184.26z M593.54,692.03c-129.07,0-258.15,0-387.22-0.02
			c-3.22,0-6.52,0.12-9.66-0.47c-13.64-2.55-22.43-13.42-22.51-28.15c-0.1-17.92-0.08-35.84-0.07-53.77c0-0.02,0-0.05,0-0.07
			c0.02-108.68,0.06-290.54-0.1-399.22c-0.01-5.48,1.35-6.99,6.95-6.97c70.5,0.2,141,0.13,211.51,0.13c36.77,0,73.53,0,110.3,0
			c34.14,0,68.28-0.03,102.42,0.02c10.49,0.01,18.78,6.3,20.29,15.46c0.52,3.16,0.45,6.44,0.45,9.67
			c0.03,23.27-0.02,103.08,0.04,140.01c-0.01,97.08-0.01,194.17-0.02,291.25C625.91,681.74,615.52,692.03,593.54,692.03z"/>
		<path class="st1" d="M607.15,712.96l-414.2-0.18c-1.32-0.51-2.67-0.97-4.01-1.44c-3.03-1.04-6.16-2.13-9.1-3.69
			c-17.11-9.06-26.27-23.68-26.51-42.28c-0.28-22.2-0.21-44.77-0.15-66.59V199.31c0-12.06,2.05-14.68,13.72-17.61l372.67-93.13
			c13.75-3.42,26.86-1.05,36.88,6.72c9.99,7.75,15.53,19.79,15.62,33.91l0.04,6.2c0.1,14.28,0.2,29.04-0.17,43.58
			c-0.07,2.57,0.36,3.19,0.5,3.32c0.16,0.16,0.86,0.54,3.44,0.39c6.35-0.29,12.88-0.62,19.45,0.9c18.06,4.17,30.9,19.37,31.22,36.94
			c0.39,21.65,0.37,83.26,0.28,131.13l-2.74-0.01h2.74h-2.74l2.75,0.13l0.01,307.5c0,28.57-11.56,44.33-38.6,52.64L607.15,712.96z
			 M194.43,707.47h410.53c0.33-0.26,0.73-0.51,1.23-0.66c24.97-7.53,35.17-21.3,35.17-47.53l-0.01-307.63
			c0.09-47.84,0.1-109.41-0.28-131.01c-0.27-15.05-11.36-28.08-26.97-31.69c-5.82-1.34-11.69-1.05-17.9-0.76
			c-2.66,0.12-5.6-0.01-7.59-1.95c-2.02-1.98-2.21-4.99-2.15-7.39c0.36-14.44,0.26-29.16,0.17-43.39l-0.04-6.22
			c-0.08-12.4-4.87-22.91-13.5-29.61c-8.66-6.72-20.09-8.75-32.19-5.72l-372.67,93.13c-9.3,2.32-9.56,2.67-9.56,12.28l0,398.8
			l0,0.69c-0.06,21.8-0.13,44.35,0.15,66.51c0.21,16.7,8.15,29.32,23.59,37.5c2.57,1.36,5.36,2.32,8.33,3.34
			C191.96,706.58,193.2,707.01,194.43,707.47z M516.09,694.77l-309.78-0.01l-1.34,0.01c-2.88-0.01-5.86,0.02-8.82-0.53
			c-14.95-2.79-24.66-14.89-24.75-30.82c-0.09-16.84-0.08-33.68-0.08-50.52l0.01-18.91c0.02-109.81,0.05-280-0.11-383.64
			c0-2.76,0.26-5.57,2.2-7.52c1.95-1.95,4.71-2.37,7.49-2.2c56.11,0.16,112.23,0.15,168.33,0.14l182.73-0.01
			c24.39,0,48.77-0.01,73.16,0.02c11.81,0.01,21.27,7.32,23,17.76c0.5,3.02,0.5,6.06,0.49,9l0.01,53.48
			c0,30.76-0.01,66.34,0.02,87.65l-0.02,291.26c0,23.45-11.49,34.86-35.12,34.86H516.09z M206.32,689.27l387.22,0.01
			c20.49,0,29.63-9.06,29.63-29.37l0.02-291.25c-0.03-21.3-0.03-56.89-0.02-87.65l-0.01-53.49c0.01-2.84,0.01-5.52-0.42-8.09
			c-1.3-7.87-8.37-13.16-17.59-13.17c-24.38-0.04-48.76-0.02-73.15-0.02l-182.73,0.01c-56.11-0.01-112.23,0.02-168.35-0.14
			c-0.03,0-0.05,0-0.07,0c-2.55,0-3.31,0.37-3.53,0.6c-0.27,0.27-0.6,1.12-0.59,3.62c0.15,103.64,0.13,273.84,0.11,383.66
			l-0.01,18.9c-0.01,16.83-0.01,33.66,0.08,50.49c0.07,13.38,7.84,23.14,20.27,25.46c2.44,0.46,5.04,0.42,7.78,0.43L206.32,689.27z
			 M567.55,188.11c-0.38,0-0.75-0.01-1.1-0.03l-1-0.02H240.4l0.18-5.95l104.03-26.04l197.16-49.29c5.6-1.4,10.72-2.7,16.39-0.78
			c9.54,3.19,15.53,11.05,15.64,20.49c0.09,8.2,0.08,16.41,0.07,24.62c-0.01,9.96-0.02,19.92,0.14,29.88
			c0.04,2.5-0.54,4.31-1.78,5.53C570.85,187.89,569.12,188.11,567.55,188.11z M261.33,182.57l305.31,0.03
			c0.59,0.01,1.47,0.06,1.8-0.04c-0.03-0.06,0.1-0.49,0.08-1.47c-0.17-9.98-0.16-19.98-0.14-29.98c0.01-8.18,0.02-16.36-0.07-24.55
			c-0.08-7.15-4.53-12.88-11.9-15.35c-4.15-1.39-8.29-0.36-12.66,0.74L261.33,182.57z"/>
	</g>
	<path class="st1" d="M400,597.32c38.16,0,76.32,0,114.48,0.01c2.02,0,4.06-0.12,6.05,0.15c4.6,0.62,7.31,3.5,7.79,7.97
		c0.48,4.51-1.76,7.7-6.05,9.39c-2.35,0.92-4.78,0.66-7.18,0.66c-76.72,0.01-153.45,0.01-230.17,0c-2.01,0-4.09,0.11-6.02-0.35
		c-4.67-1.12-7.48-4.24-7.24-9.1c0.25-5.07,3.23-8.29,8.42-8.6c5.03-0.3,10.09-0.12,15.14-0.12
		C330.15,597.32,365.07,597.32,400,597.32z"/>
	<path class="st1" d="M399.99,661.87c-30.89,0-61.78-0.05-92.68,0.05c-5.14,0.02-9.24-1.21-11.1-6.4
		c-1.67-4.68,1.25-9.97,6.35-11.28c2.3-0.59,4.79-0.54,7.2-0.54c60.17-0.03,120.34-0.02,180.51-0.02c1.01,0,2.02-0.02,3.03,0.01
		c6.92,0.22,11.09,3.86,10.89,9.49c-0.19,5.37-4.2,8.66-10.93,8.67C462.17,661.89,431.08,661.87,399.99,661.87z"/>
</g>
</svg>
