<?xml version="1.0" encoding="utf-8"?>
<!-- Generator: Adobe Illustrator 24.0.0, SVG Export Plug-In . SVG Version: 6.00 Build 0)  -->
<svg version="1.1" id="Layer_1" xmlns="http://www.w3.org/2000/svg" xmlns:xlink="http://www.w3.org/1999/xlink" x="0px" y="0px"
	 viewBox="0 0 800 800" style="enable-background:new 0 0 800 800;" xml:space="preserve">
<style type="text/css">
	.st0{fill:#1A3763;}
	.st1{fill:#6DADDD;}
</style>
<g>
	<path class="st0" d="M660.08,212.22c-6.25-0.1-12.5-0.28-18.75-0.29c-27.41-0.03-54.82-0.01-82.23-0.01c-2,0-3.99,0-6.71,0
		c0-24.25,0-48.04,0-71.82c35.9,0,71.8,0,107.69,0C660.08,164.14,660.08,188.18,660.08,212.22z"/>
	<path class="st0" d="M269.95,140.1c18.83,9.86,37.7,19.66,56.49,29.6c10.61,5.62,21.12,11.42,31.62,17.24
		c7.64,4.24,8.1,9.79,1.44,15.57c-0.64,0.55-1.28,1.1-1.93,1.65c-11.7,9.84-11.87,9.93-26.62,7.6c-1.03-0.16-2.41-1.63-2.62-2.69
		c-0.43-2.12-0.1-4.38-0.18-6.58c-0.57-15.05-11.44-26.3-26.56-26.5c-24.04-0.32-48.08-0.31-72.12,0
		c-15.5,0.2-26.46,11.83-26.68,27.42c-0.04,2.53,0,5.06,0,7.78c-6.07,0.68-11.88,1.38-17.69,1.92c-0.69,0.06-1.56-0.57-2.17-1.08
		c-4.31-3.55-8.69-7.03-12.83-10.77c-4.8-4.34-4.29-10.31,1.39-13.44c27.41-15.07,54.9-29.98,82.4-44.89
		c2.19-1.19,4.63-1.9,6.95-2.84C263.85,140.1,266.9,140.1,269.95,140.1z"/>
	<path class="st0" d="M570.87,229.97c23.7,0,47.14,0,70.89,0c0,143.4,0,286.52,0,429.93c-23.6,0-47.05,0-70.89,0
		C570.87,516.66,570.87,373.44,570.87,229.97z"/>
	<path class="st0" d="M552.24,534.57c0,24.17,0,47.64,0,71.58c-1.73,0.08-3.35,0.23-4.98,0.23c-123.05,0.01-246.09,0.02-369.14,0
		c-22.78-0.01-39.03-16.09-38.18-37.58c0.67-17.04,14.08-31.65,30.99-33.68c3.02-0.36,6.07-0.53,9.11-0.53
		c122.03-0.03,244.06-0.02,366.09-0.02C547.98,534.57,549.82,534.57,552.24,534.57z M480.55,597.33
		c14.86,0.06,26.93-11.77,27.07-26.53c0.15-14.89-12.15-27.29-27.01-27.22c-14.73,0.07-26.76,12.16-26.77,26.9
		C453.83,585.32,465.72,597.27,480.55,597.33z M211.35,597.33c14.92,0.11,26.97-11.61,27.13-26.39
		c0.17-15.07-11.85-27.33-26.8-27.35c-14.66-0.02-26.87,12.1-26.97,26.77C184.6,585.09,196.57,597.21,211.35,597.33z M390.76,597.32
		c15.1,0.09,27.3-11.98,27.2-26.92c-0.09-14.68-12.29-26.82-26.93-26.82c-14.74,0-26.74,12-26.8,26.81
		C364.18,585.31,375.92,597.24,390.76,597.32z M328.12,570.53c0.01-14.84-11.86-26.85-26.64-26.96
		c-14.63-0.11-26.84,11.93-27.05,26.67c-0.22,14.92,11.94,27.11,27.01,27.08C316.31,597.29,328.11,585.44,328.12,570.53z"/>
	<path class="st0" d="M319.31,516.62c-33.28,0-65.59,0-98.6,0c0-35.73,0-71.32,0-107.18c-6.22,0-11.73,0-17.81,0
		c0,11.63,0,23.21,0,35.13c-12.15,0-23.74,0-35.36,0c-0.17-0.24-0.53-0.51-0.52-0.77c0.43-15.69-0.61-31.61,1.71-47.02
		c3.39-22.58,24.34-42.96,44.92-46.34c7.02,18.65,14.08,37.39,21.22,56.35c10.11-10.19,19.95-20.11,30.17-30.42
		c10.55,10.66,20.39,20.6,30.77,31.08c7.34-19.5,14.39-38.21,21.6-57.36c15.13,4,26.56,12.57,35.82,25.36
		c-13.77,6.96-17.28,19-15.98,33.57c-6.06,0-11.57,0-17.93,0c0,18.32,0,36.16,0,54C319.31,480.74,319.31,498.46,319.31,516.62z"/>
	<path class="st0" d="M184.95,659.85c0-11.95,0-23.41,0-35.15c122.44,0,244.6,0,367.12,0c0,11.62,0,23.21,0,35.15
		C429.83,659.85,307.54,659.85,184.95,659.85z"/>
	<path class="st0" d="M408.94,427.34c12.11,0,23.71,0,35.58,0c0,29.78,0,59.31,0,89.15c-35.68,0-71.14,0-106.99,0
		c0-29.62,0-59.15,0-89.07c5.59,0,11.26,0,17.47,0c0,17.54,0,35.03,0,52.95c18.17,0,35.8,0,53.95,0
		C408.94,462.71,408.94,445.18,408.94,427.34z"/>
	<path class="st0" d="M220.56,229.95c30.38,0,59.79,0,88.81,0c0,15.78,0.8,31.32-0.3,46.73c-0.66,9.19-6.81,16.61-14.73,21.55
		c-8.05,5.02-12.16,11.9-10.9,21.18c1.4,10.37-1.8,18.26-10.15,24.5c-2.78,2.08-4.77,5.23-7.48,8.3
		c-6.02-6.13-11.41-11.47-16.58-17.02c-1-1.07-1.53-2.95-1.59-4.48c-0.2-4.9-0.07-9.82-0.08-14.73c-0.02-6.76-2.69-12.27-8.43-15.86
		c-13.54-8.47-19.09-20.78-18.62-36.45C220.83,252.55,220.56,241.42,220.56,229.95z M238.7,266.01
		c0.87,16.54,14.08,27.98,29.71,26.37c13.57-1.4,25.28-14.69,23.12-26.66c-4.65,0-9.38-0.22-14.07,0.14c-1.29,0.1-2.88,1.69-3.58,3
		c-1.86,3.43-4.37,5.56-8.36,5.58c-3.98,0.02-6.73-1.92-8.34-5.51c-0.46-1.02-0.84-2.08-1.18-2.93
		C250.09,266.01,244.55,266.01,238.7,266.01z"/>
	<path class="st0" d="M220.69,211.39c0-3.22-0.21-6.08,0.05-8.9c0.49-5.24,3.69-8.48,8.92-8.5c23.82-0.12,47.64-0.12,71.46-0.01
		c5.41,0.02,8.73,3.41,9.19,8.85c0.22,2.67,0.04,5.38,0.04,8.56C280.52,211.39,250.94,211.39,220.69,211.39z"/>
	<path class="st0" d="M184.98,463.19c5.93,0,11.47,0,17.4,0c0,17.74,0,35.37,0,53.31c-5.81,0-11.45,0-17.4,0
		C184.98,498.76,184.98,481.26,184.98,463.19z"/>
	<path class="st0" d="M373.45,427.38c5.7,0,11.21,0,17.11,0c0,11.64,0,23.21,0,35.21c-5.5,0-11.12,0-17.11,0
		C373.45,450.88,373.45,439.31,373.45,427.38z"/>
	<path class="st0" d="M390.93,408.87c-12.14,0-23.69,0-35.64,0c0-3.45-0.29-6.64,0.07-9.76c0.56-4.84,3.72-7.62,8.46-7.86
		c6.22-0.31,12.49-0.31,18.71,0c5.06,0.25,8.15,3.84,8.39,9.02C391.03,402.96,390.93,405.65,390.93,408.87z"/>
	<path class="st0" d="M328.43,247.68c0-6.24,0-11.76,0-17.79c5.85-0.03,12.12-2.02,15.83,3.84c1.49,2.35,1.7,6.85,0.44,9.33
		C341.31,249.74,334.59,247.39,328.43,247.68z"/>
	<path class="st0" d="M202.75,229.72c0,4.96,0.02,9.3-0.01,13.63c-0.01,1.31-0.17,2.61-0.28,4.26c-5.81-0.19-12.16,2.11-15.81-3.89
		c-1.45-2.39-1.71-6.81-0.47-9.27C189.51,227.83,196.19,229.97,202.75,229.72z"/>
	<path class="st0" d="M299.13,347.57c-3.45,9.2-6.76,18-10.25,27.29c-3.45-3.88-6.57-7.38-9.76-10.96
		C285.02,355.64,294.81,347.23,299.13,347.57z"/>
	<path class="st0" d="M252.44,363.51c-3.91,3.92-7.2,7.21-10.66,10.68c-3.26-8.7-6.53-17.44-10.42-27.81
		c2.81,1.06,4.6,1.24,5.66,2.22C242.33,353.51,247.44,358.64,252.44,363.51z"/>
</g>
</svg>
