<?xml version="1.0" encoding="utf-8"?>
<!-- Generator: Adobe Illustrator 24.0.0, SVG Export Plug-In . SVG Version: 6.00 Build 0)  -->
<svg version="1.1" id="Layer_1" xmlns="http://www.w3.org/2000/svg" xmlns:xlink="http://www.w3.org/1999/xlink" x="0px" y="0px"
	 viewBox="0 0 800 800" style="enable-background:new 0 0 800 800;" xml:space="preserve">
<style type="text/css">
	.st0{fill:#1A3763;}
	.st1{fill:#6DADDD;}
</style>
<g>
	<g>
		<g>
			<path class="st0" d="M176.45,288.21c-0.15,3.46-1.6,6.13-4.76,7.76c-3.21,1.65-6.48,1.44-8.99-0.93
				c-6.35-6-12.61-12.11-18.52-18.54c-3.19-3.47-2.84-7.7,0.43-11.12c3.26-3.41,7.58-4.09,11.07-0.94
				c6.61,5.96,12.75,12.46,18.97,18.83C175.88,284.53,176.5,286.31,176.45,288.21z"/>
			<path class="st0" d="M151.59,365.61c-7.29,0.02-12.01-7.34-8.21-12.49c5.71-7.74,12.85-14.34,20.26-20.46
				c3.23-2.66,7.24-1.74,10.22,1.23c2.99,2.97,3.94,6.96,1.29,10.21c-6.08,7.46-12.96,14.22-20.38,20.36
				C153.76,365.31,152.15,365.42,151.59,365.61z"/>
			<path class="st0" d="M657.25,502.57c0,3.06-1.18,5.21-3,7.04c-5.28,5.31-10.52,10.67-15.91,15.87
				c-4.29,4.14-9.21,4.32-12.81,0.76c-3.61-3.58-3.46-8.55,0.65-12.8c5.33-5.52,10.75-10.94,16.27-16.28
				c2.77-2.68,6.09-3.61,9.82-1.83C655.48,496.87,656.99,499.5,657.25,502.57z"/>
			<path class="st0" d="M631.14,563.15c3.03,0.02,5.17,1.22,7,3.03c5.31,5.29,10.68,10.52,15.88,15.91
				c4.12,4.27,4.28,9.23,0.69,12.81c-3.59,3.59-8.54,3.41-12.8-0.72c-5.51-5.33-10.94-10.76-16.27-16.28
				c-2.68-2.78-3.59-6.11-1.79-9.82C625.4,564.88,628.04,563.39,631.14,563.15z"/>
			<path class="st0" d="M159.31,322.67c-3.04,0-6.1,0.21-9.11-0.05c-4.75-0.4-8.01-4.01-8.01-8.48c0-4.48,3.25-8.24,8-8.46
				c6.07-0.29,12.16-0.28,18.23,0c4.75,0.22,8.02,3.98,8.02,8.46c0,4.46-3.27,8.1-8.01,8.49
				C165.41,322.88,162.35,322.67,159.31,322.67z"/>
			<path class="st0" d="M639.69,554.52c-2.68,0-5.37,0.13-8.04-0.03c-5.14-0.3-8.59-3.74-8.67-8.42c-0.07-4.69,3.34-8.42,8.42-8.62
				c5.71-0.23,11.45-0.21,17.16-0.02c5.12,0.17,8.6,3.73,8.67,8.39c0.08,4.86-3.53,8.42-8.96,8.68
				C645.41,554.63,642.55,554.52,639.69,554.52z"/>
			<path class="st0" d="M356.99,176.78c9.32,0.11,16.99,7.9,16.94,17.23c-0.04,9.33-7.77,17.05-17.1,17.07
				c-9.53,0.03-17.39-7.97-17.2-17.52C339.81,184.22,347.6,176.67,356.99,176.78z"/>
			<path class="st0" d="M442.6,176.78c9.33-0.02,17.1,7.67,17.19,16.99c0.09,9.55-7.85,17.45-17.39,17.32
				c-9.31-0.12-16.97-7.95-16.91-17.27C425.54,184.45,433.22,176.8,442.6,176.78z"/>
			<path class="st0" d="M595.03,521.17c-3.65-0.9-6.95-1.3-8.2-5.83c-0.67-2.42-3.6-3.2-6.11-3.82c-6.87-1.69-13.67-3.78-20.61-5.1
				c-3.5-0.66-5.97-3.79-5.97-7.35c0.15-108.57,0.12-217.14,0.11-325.71c0-17.09-13.85-30.94-30.94-30.94
				c-82.46-0.01-164.91-0.01-247.37,0c-19.36,0-30.75,11.33-30.77,30.57c-0.02,31.48-0.1,62.96,0.11,94.44
				c0.03,4.32-0.96,6.29-5.41,7.13c-7.18,1.35-14.22,3.48-21.33,5.2c-2.92,0.71-5.74,1.86-6.61,4.83c-0.91,3.13-2.8,3.72-5.63,4.26
				c-11.99,2.28-20.57,12.07-21.18,23.73c-0.63,11.88,6.92,22.86,18.17,26.13c3.92,1.14,8.28,0.99,9.6,6.42
				c0.53,2.16,3.44,2.83,5.77,3.4c6.76,1.65,13.44,3.73,20.28,4.99c4.88,0.9,6.39,2.79,6.37,7.98
				c-0.2,94.44-0.15,188.88-0.14,283.32c0,11.17,2.76,13.07,15.11,12.7c5.14-0.03,10.31-0.07,15.45-0.1
				c18.15,0.55,20.95,0.18,20.95-13.43c0-130.93,0.03-261.86-0.11-392.78c0-4.68,1.06-5.88,5.83-5.87
				c64.75,0.18,129.5,0.17,194.24,0.02c4.69-0.01,6.24,0.91,6.22,6c-0.04,14.16-0.06,61.66-0.07,93.73
				c-0.01,0.17-0.05,0.32-0.05,0.49c-0.01,34.24-0.01,68.47-0.01,102.71c0,66-0.01,132,0.01,198c0,6.2,5.02,11.25,11.23,11.27
				c9.68,0.03,19.35,0.03,29.03,0c6.21-0.02,11.23-5.07,11.24-11.28c0.02-18.42,0.09-36.85-0.07-55.27
				c-0.03-3.1,0.91-4.37,3.87-5.03c7.66-1.73,15.25-3.77,22.87-5.65c2.91-0.72,5.75-1.9,6.58-4.88c0.89-3.2,2.88-3.69,5.67-4.23
				c12.21-2.38,20.77-12.38,21.16-24.31C614.71,534.76,606.86,524.08,595.03,521.17z M210.79,311.82c0.21,0.83,0.03,1.77,0.03,2.65
				c0,1.06,0.14,2.15-0.03,3.19c-0.27,1.61,1.12,3.97-0.98,4.68c-1.88,0.63-3.74-0.83-5.08-2.29c-2.48-2.71-3.23-5.82-1.68-9.32
				c1.25-2.83,3.58-5.23,6.4-4.76C212.4,306.47,210.28,309.81,210.79,311.82z M242.69,336.81c-0.34-0.11-0.7-0.13-1.05-0.19
				C228,333.98,228,333.98,228,320.06c0-7.15,0.09-14.29-0.05-21.44c-0.05-2.51,0.57-3.88,3.26-4.4c4.52-0.87,8.97-2.1,13.95-3.3
				c0,14.94-0.02,29.39,0.02,43.83C245.19,336.64,244.61,337.42,242.69,336.81z M273.36,640.54c-11-0.48-11.02-0.13-11.02-11.31
				c0-151.79,0-303.59,0-455.38c0-10.37,4.01-14.42,13.49-14.34c3.26,0.03,3.85,1.29,3.72,4.1c-0.18,4.1-0.05,8.22-0.05,12.34
				c0,74.73,0,149.47,0,224.2c0,77.95-0.05,155.91,0.11,233.86C279.63,638.96,278.78,640.77,273.36,640.54z M502.85,223.17
				c0.06,4.38-1.33,5.21-5.39,5.2c-65.26-0.12-130.51-0.12-195.77,0c-3.86,0.01-5.17-0.75-5.12-4.92c0.24-19.66,0.24-39.33,0-59
				c-0.05-4.16,1.23-4.95,5.11-4.94c32.72,0.15,65.44,0.09,98.15,0.09c32.54,0,65.08,0.07,97.62-0.09c4.04-0.02,5.45,0.8,5.39,5.19
				C502.59,184.19,502.59,203.68,502.85,223.17z M530.77,640.53c-10.85-0.44-10.86-0.14-10.86-10.88c0-76.52,0-153.04,0-229.57
				v-28.34c0-7.38,0-16.27,0-26.17c0-54.13,0-138.99,0-179.35c0-4.05,3.31-7.05,7.34-6.57c5.35,0.64,9.23,4.57,9.75,9.98
				c0.16,1.6,0.08,3.22,0.08,4.82c0,153.31-0.03,306.61,0.13,459.92C537.21,637.9,534.29,640.67,530.77,640.53z M569.21,565.54
				c-4.85,1.03-9.63,2.36-14.75,3.65c0-15.67,0-30.81,0-46.12c5.23,0.43,9.89,2.32,14.75,3.3c2.24,0.45,2.22,1.85,2.22,3.51
				c-0.01,10.72-0.01,21.44,0,32.15C571.43,563.69,571.43,565.07,569.21,565.54z M596.65,548.65c-1.09,3.09-3.41,5.83-6.46,5.42
				c-3.15-0.42-0.99-4.01-1.57-6.11c-0.18-0.66-0.03-1.41-0.03-2.12c0-1.24-0.1-2.49,0.03-3.72c0.15-1.49-0.84-3.63,0.77-4.31
				c1.92-0.8,3.75,0.69,5.12,2.07C596.94,542.32,597.84,545.28,596.65,548.65z"/>
		</g>
		<path class="st0" d="M327.66,473.13c0-15.99-0.03-31.98,0.01-47.96c0.08-30.97,22.67-53.6,53.67-53.74
			c13.81-0.06,27.62-0.06,41.42,0c30.86,0.13,53.51,22.32,53.76,53.22c0.28,33.57,0.09,67.15,0.05,100.72
			c-0.01,7.26-2.75,9.86-10.13,9.9c-5.09,0.03-10.19,0.26-15.26-0.08c-3.81-0.26-4.5,1.19-4.48,4.67
			c0.13,28.92,0.08,57.85,0.07,86.77c0,1.16,0.03,2.33-0.01,3.49c-0.21,6.68-2.66,9.2-9.35,9.22c-16.13,0.06-32.27,0.02-48.4,0.02
			c-6.4,0-12.79,0-19.19,0c-10.77,0-12.46-1.67-12.46-12.27c0-28.92-0.1-57.85,0.11-86.77c0.03-4.32-1.15-5.45-5.29-5.14
			c-5.06,0.38-10.17,0.15-15.25,0.07c-6.52-0.09-9.26-2.83-9.27-9.38C327.64,508.3,327.66,490.72,327.66,473.13z M372.25,527.49
			c0,30.96,0.05,61.93-0.07,92.89c-0.01,3.22,0.78,4.37,4.11,4.17c4.63-0.28,9.31-0.3,13.95,0c3.64,0.24,4.59-0.97,4.58-4.59
			c-0.15-29.95-0.08-59.89-0.08-89.84c0-9.73,0.01-9.51,9.68-9.82c4.14-0.13,5.32,0.88,5.29,5.18c-0.2,31.54-0.07,63.09-0.18,94.64
			c-0.01,3.27,0.61,4.72,4.23,4.43c4.19-0.34,8.45-0.38,12.63,0.01c4.35,0.4,5.57-0.91,5.56-5.41
			c-0.17-59.31-0.11-118.62-0.11-177.94c0-10.3,0-10.11,10.19-10.34c3.91-0.09,4.86,1.09,4.83,4.89
			c-0.17,24.71-0.09,49.43-0.09,74.14c0,10.63,0,10.5,10.77,10.59c3.23,0.03,4.25-0.8,4.21-4.12c-0.17-13.95,0.05-27.91-0.1-41.87
			c-0.19-18.45,0.78-36.92-0.54-55.36c-1.13-15.85-15.48-30.66-31.23-32.15c-16.96-1.61-33.98-0.59-50.98-0.55
			c-5.21,0.01-10.37,1.2-15.11,3.65c-14.33,7.4-21.18,19.4-21.24,35.28c-0.12,28.2-0.03,56.4-0.03,84.61
			c0,10.47,0,10.31,10.32,10.51c3.55,0.07,4.66-0.79,4.63-4.51c-0.17-24.86-0.09-49.72-0.09-74.58c0-10.51,0-10.35,10.35-10.54
			c3.64-0.07,4.61,0.97,4.6,4.59C372.19,466.14,372.25,496.82,372.25,527.49z"/>
		<path class="st0" d="M401.99,267.37c24.51-0.07,44.82,20.18,44.72,44.58c-0.1,24.38-20.09,44.49-44.32,44.59
			c-24.47,0.1-44.86-20.02-44.99-44.41C357.27,287.75,377.5,267.44,401.99,267.37z M431.72,311.32
			c-0.5-16.74-13.97-29.52-30.57-29.01c-16.11,0.5-29.3,14.22-28.84,30.01c0.48,16.59,14.28,29.86,30.51,29.33
			C419.19,341.12,432.2,327.47,431.72,311.32z"/>
	</g>
</g>
</svg>
