<?xml version="1.0" encoding="utf-8"?>
<!-- Generator: Adobe Illustrator 24.0.0, SVG Export Plug-In . SVG Version: 6.00 Build 0)  -->
<svg version="1.1" id="Layer_1" xmlns="http://www.w3.org/2000/svg" xmlns:xlink="http://www.w3.org/1999/xlink" x="0px" y="0px"
	 viewBox="0 0 800 800" style="enable-background:new 0 0 800 800;" xml:space="preserve">
<style type="text/css">
	.st0{fill:#1A3763;}
	.st1{fill:#6DADDD;}
</style>
<g>
	<g>
		<path class="st1" d="M471.79,691.21c-53.62,0-107.24,0.01-160.86,0c-18.53,0-29.21-7.58-35.06-25.05
			c-0.74-2.21-1.62-3.21-4.02-3.17c-7.24,0.12-14.48,0.16-21.72-0.01c-2.92-0.07-3.67,1.09-3.58,3.78
			c0.16,4.69,0.14,9.39,0.01,14.09c-0.18,6.61-3.63,10.24-10.17,10.32c-11.94,0.15-23.88,0.14-35.81,0.01
			c-6.63-0.07-10.13-3.61-10.32-10.16c-0.17-5.86,1.64-12.59-0.67-17.36c-2.22-4.59-9.95-3.76-14.88-6.43
			c-19.71-10.7-31.2-27.07-31.28-49.48c-0.36-104.11-0.32-208.22-0.05-312.33c0.08-30.18,24.96-54.49,55.21-55.08
			c11.35-0.22,22.7-0.19,34.05,0.02c3.54,0.06,4.67-0.84,4.64-4.54c-0.17-22.11-0.18-44.23,0.01-66.34
			c0.03-3.86-1.38-4.41-4.75-4.43c-12.02-0.06-14.13-2.37-14.13-14.57c0-10.18-0.06-20.35,0.02-30.53
			c0.06-7.71,3.43-11.16,11.09-11.17c55.19-0.04,110.37-0.04,165.56,0c7.71,0.01,11.14,3.43,11.2,11.08
			c0.09,11.15,0.06,22.31,0.01,33.46c-0.04,8.45-3.33,12.18-11.68,11.64c-6.09-0.39-7.35,1.57-7.25,7.37
			c0.37,20.93,0.26,41.88,0.05,62.81c-0.04,4.06,0.99,5.21,5.15,5.26c14.07,0.16,28.2-1.34,42.19,0.89
			c25.79,4.1,45.72,26.68,46.56,52.87c0.38,11.73,0.26,23.48,0.05,35.22c-0.07,3.78,0.94,5.03,4.85,4.93
			c10.36-0.27,20.74-0.15,31.11-0.07c7.64,0.06,11.04,3.49,11.07,11.2c0.07,18.98,0.24,37.97-0.11,56.94
			c-0.1,5.46,0.98,7.2,6.87,7.14c32.87-0.33,65.75-0.18,98.63-0.15c21.88,0.02,35.54,13.63,35.54,35.5
			c0.02,70.25,0.02,140.51,0,210.76c-0.01,21.87-13.67,35.55-35.51,35.56C579.82,691.22,525.8,691.21,471.79,691.21z M162.04,451.66
			c0,50.87-0.02,101.75,0.01,152.62c0.02,24.17,15.87,39.91,40.16,39.95c22.11,0.03,44.22-0.19,66.33,0.15
			c5.27,0.08,6.37-1.37,6.36-6.45c-0.18-64.38-0.14-128.75-0.11-193.13c0.01-21.83,13.68-35.41,35.61-35.42
			c33.07-0.02,66.14-0.1,99.2,0.11c4.72,0.03,6.31-0.9,6.22-5.98c-0.33-19.37-0.17-38.74-0.11-58.11c0.03-7.7,3.43-11.1,11.1-11.16
			c10.37-0.08,20.75-0.2,31.11,0.07c3.96,0.11,4.91-1.23,4.82-4.97c-0.24-9.97-0.06-19.96-0.08-29.94
			c-0.05-24.66-15.7-40.33-40.35-40.34c-73.18-0.02-146.36-0.02-219.54,0c-25.09,0-40.71,15.56-40.72,40.56
			C162.02,350.3,162.04,400.98,162.04,451.66z M387.51,550.11c0,38.74,0.09,77.48-0.11,116.22c-0.02,4.73,0.93,6.23,5.98,6.21
			c52.43-0.2,104.87-0.2,157.31,0c4.97,0.02,6.05-1.35,6.04-6.15c-0.16-77.48-0.15-154.96-0.02-232.44c0.01-4.4-0.85-5.93-5.67-5.91
			c-52.63,0.19-105.26,0.19-157.89,0.01c-4.72-0.02-5.75,1.35-5.73,5.85C387.58,472.63,387.51,511.37,387.51,550.11z M331.14,550.57
			c0-22.3,0-44.59,0-66.89c0-16.82-0.14-33.64,0.1-50.46c0.06-4.17-1.14-5.45-5.23-5.14c-4.67,0.35-9.38,0.08-14.08,0.08
			c-13.62,0.01-18.36,4.72-18.37,18.28c-0.01,54.76,0,109.53,0,164.29c0,15.26-0.05,30.51,0.02,45.77
			c0.05,10.35,5.6,15.8,16.02,15.91c5.28,0.05,10.59-0.3,15.84,0.1c4.6,0.35,5.84-1.12,5.82-5.76
			C331.05,628.03,331.14,589.3,331.14,550.57z M612.97,550.01c0,22.69,0,45.38,0,68.06c0,16.43,0.15,32.86-0.1,49.29
			c-0.06,4.18,1.16,5.44,5.24,5.14c4.67-0.35,9.38-0.08,14.08-0.08c13.58-0.01,18.36-4.76,18.36-18.3c0.01-56.72,0-113.44,0-170.16
			c0-13.3,0.06-26.6-0.02-39.9c-0.06-10.35-5.61-15.79-16.03-15.9c-5.28-0.05-10.59,0.3-15.83-0.1c-4.63-0.36-5.82,1.15-5.8,5.77
			C613.06,472.56,612.97,511.29,612.97,550.01z M349.93,549.99c0,36.78,0,73.55,0,110.33c0,12.11,0.01,11.84,12.17,12.22
			c5.27,0.16,6.76-1.19,6.75-6.64c-0.2-74.92-0.13-149.84-0.13-224.77c0-13.04,0-12.85-13.06-13.09c-4.52-0.08-5.87,1.03-5.85,5.74
			C350.02,472.52,349.93,511.26,349.93,549.99z M594.19,550.59c0-36.78,0-73.55,0-110.33c0-12.12-0.01-11.85-12.17-12.23
			c-5.26-0.16-6.76,1.18-6.75,6.64c0.2,74.92,0.13,149.84,0.13,224.77c0,13.05,0,12.85,13.05,13.09c4.51,0.08,5.88-1.02,5.85-5.74
			C594.1,628.05,594.19,589.32,594.19,550.59z M340.53,202.98c0-10.95-0.11-21.9,0.06-32.85c0.05-3.49-0.42-5.2-4.64-5.13
			c-15.83,0.26-31.67,0.18-47.51,0.04c-3.23-0.03-4.38,0.78-4.36,4.21c0.14,22.29,0.14,44.58,0,66.87
			c-0.02,3.42,1.12,4.24,4.35,4.21c15.84-0.14,31.68-0.22,47.51,0.04c4.21,0.07,4.7-1.64,4.64-5.13
			C340.42,224.49,340.53,213.74,340.53,202.98z M312.03,146.32c20.93,0,41.85,0,62.78,0c12.74,0,12.5-0.01,12.82-12.74
			c0.12-4.8-1.03-6.19-6.03-6.17c-43.61,0.21-87.22,0.12-130.83,0.12c-13.73,0-13.48,0-13.71,13.62c-0.08,4.8,1.74,5.27,5.75,5.25
			C265.88,146.24,288.96,146.32,312.03,146.32z M448.43,381.19c-13.96,0-13.96,0-13.96,13.79c0,0.2,0,0.39,0,0.59
			c0,13.81,0,13.81,13.93,13.81c14.25,0,14.25,0,14.25-14.08C462.66,381.19,462.66,381.19,448.43,381.19z M509.63,395.84
			c0-14.66,0-14.66-14.26-14.66c-13.93,0-13.93,0-13.93,13.82c0,14.37,0,14.37,14.55,14.37
			C509.63,409.37,509.63,409.37,509.63,395.84z M255.98,202.41c0,10.95,0.1,21.89-0.06,32.84c-0.05,3.46,0.39,5.29,4.63,5.17
			c3.76-0.1,4.95-1.01,4.92-4.9c-0.18-21.89-0.19-43.79,0-65.68c0.03-3.93-1.22-4.76-4.94-4.88c-4.28-0.14-4.65,1.77-4.6,5.2
			C256.08,180.9,255.98,191.66,255.98,202.41z M359.32,202.71c0,10.95,0.17,21.9-0.09,32.84c-0.1,3.95,1.22,4.87,4.96,4.85
			c3.55-0.02,4.64-0.93,4.61-4.6c-0.17-22.09-0.18-44.18,0-66.26c0.03-3.73-1.17-4.5-4.66-4.56c-3.8-0.06-5,1.01-4.91,4.89
			C359.49,180.81,359.32,191.76,359.32,202.71z M471.76,362.4c10.95,0,21.89-0.1,32.84,0.06c3.45,0.05,5.31-0.35,5.18-4.61
			c-0.11-3.74-0.98-4.96-4.89-4.93c-21.89,0.18-43.79,0.18-65.68,0c-3.91-0.03-4.78,1.18-4.89,4.93c-0.13,4.26,1.74,4.67,5.18,4.62
			C450.26,362.29,461.01,362.4,471.76,362.4z M218.35,663.02c-0.78,0-1.56-0.05-2.34,0.01c-3.31,0.23-7.31-1.63-7.22,4.89
			c0.09,6.31,4.03,4.2,7.03,4.46c2.13,0.19,4.29-0.08,6.43,0.06c3.39,0.22,5.78,0.21,5.74-4.63c-0.04-4.54-1.88-5.24-5.55-4.82
			C221.1,663.15,219.72,663.02,218.35,663.02z"/>
		<path class="st1" d="M180.87,287.11c0.07-5.11,4.37-9.29,9.47-9.22c5.1,0.07,9.3,4.38,9.22,9.47c-0.07,5.09-4.4,9.3-9.48,9.22
			C184.99,296.51,180.8,292.2,180.87,287.11z"/>
		<path class="st1" d="M443.82,287.43c-0.11,5.08-4.48,9.27-9.55,9.16c-5.09-0.11-9.26-4.46-9.14-9.55
			c0.11-5.11,4.44-9.26,9.54-9.15C439.76,278,443.93,282.35,443.82,287.43z"/>
		<path class="st1" d="M199.56,615.89c0.09,5.07-4.11,9.42-9.19,9.51c-5.08,0.09-9.41-4.1-9.5-9.2c-0.09-5.1,4.07-9.41,9.18-9.5
			C195.15,606.61,199.47,610.79,199.56,615.89z"/>
	</g>
</g>
</svg>
