<?xml version="1.0" encoding="utf-8"?>
<!-- Generator: Adobe Illustrator 24.0.0, SVG Export Plug-In . SVG Version: 6.00 Build 0)  -->
<svg version="1.1" id="Layer_1" xmlns="http://www.w3.org/2000/svg" xmlns:xlink="http://www.w3.org/1999/xlink" x="0px" y="0px"
	 viewBox="0 0 800 800" style="enable-background:new 0 0 800 800;" xml:space="preserve">
<style type="text/css">
	.st0{fill:#1A3763;}
	.st1{fill:#6DADDD;}
	.st2{font-family:'Rubik-Bold';}
	.st3{font-size:73.9158px;}
	.st4{font-size:36.9441px;}
</style>
<g>
	<g>
		<g>
			<path class="st1" d="M508.57,367.5c-0.07,0-0.14,0-0.21,0c-26.55-0.12-53.55-0.1-79.67-0.08l-64.7,0.02l-72.21,0
				c-17.95,0-25.49-9.4-28.65-17.28c-4.89-12.18-1.93-26.91,7.21-35.83l20.86-20.35c16.96-16.54,33.93-33.09,50.84-49.69
				c4.22-4.15,9.01-6.14,14.89-6.05c27.47,0.13,56.39,0.13,85.96,0.01c0.03,0,0.06,0,0.1,0c6.07,0,10.8,1.87,14.88,5.88
				c14.78,14.52,29.6,28.99,44.43,43.46c9.23,9.01,18.47,18.02,27.69,27.05c8.99,8.78,11.87,24.74,6.56,36.33
				C531.5,361.94,522.09,367.5,508.57,367.5z M457.1,349.79c17.06,0,34.29,0.02,51.34,0.1c0.05,0,0.1,0,0.14,0
				c7.51,0,10.21-2.51,11.94-6.28c2.25-4.91,0.89-12.72-2.86-16.39c-9.22-9.02-18.45-18.03-27.68-27.03
				c-14.84-14.48-29.68-28.97-44.47-43.5c-0.6-0.58-0.83-0.91-2.56-0.82c-29.62,0.13-58.59,0.12-86.1-0.01c-0.02,0-0.04,0-0.06,0
				c-1.21,0-1.53,0.14-2.41,1c-16.92,16.62-33.9,33.18-50.88,49.73l-20.85,20.34c-4.04,3.94-5.4,11.11-3.17,16.67
				c0.81,2.02,2.49,6.22,12.3,6.22l72.21,0l64.69-0.02C438.06,349.8,447.56,349.79,457.1,349.79z"/>
		</g>
		<g>
			<path class="st1" d="M464.68,559.43c-10.78,0-21.55,0-32.32,0l-32.34,0l-35.37,0c-23.58,0-47.16,0-70.74,0
				c-19.13-0.01-30.11-10.91-30.12-29.92c-0.01-47.5-0.02-95,0-142.5c0.01-18.55,11.15-29.63,29.79-29.64
				c70.94-0.01,141.89-0.01,212.83,0c18.67,0.01,29.82,11.08,29.83,29.61c0.02,47.71,0.02,95.41-0.01,143.11
				c-0.01,18.08-11.3,29.32-29.47,29.34C492.73,559.43,478.7,559.43,464.68,559.43z M400.02,541.81l32.34,0
				c24.79,0.01,49.58,0.01,74.38-0.01c8.54-0.01,11.87-3.3,11.87-11.74c0.03-47.7,0.02-95.39,0.01-143.09
				c-0.01-8.85-3.2-11.99-12.22-12c-70.94-0.01-141.88-0.01-212.82,0c-8.99,0.01-12.17,3.15-12.18,12.03
				c-0.02,47.49-0.01,94.99,0,142.49c0.01,9.2,3.16,12.31,12.51,12.31c23.58,0.01,47.16,0,70.74,0L400.02,541.81z"/>
		</g>
		<g>
			<path class="st1" d="M487.45,685.44c-8.57,0-16.97-2.7-24.46-8.04l10.23-14.34c10.18,7.26,19.93,4.94,26.31,1.71
				c10.81-5.46,18.77-16.96,18.94-27.34c0.21-13.13,0.16-26.54,0.11-39.5c-0.02-4.9-0.04-9.79-0.04-14.68
				c-0.01-11.14-4.38-13.25-12.45-13.26c-27.2-0.01-54.41-0.01-81.61-0.01h-24.48v-17.62h24.48c27.19,0,54.41,0,81.62,0.01
				c19.09,0.01,30.04,11.25,30.06,30.86c0.01,4.88,0.02,9.75,0.04,14.63c0.05,13.05,0.1,26.54-0.11,39.84
				c-0.26,16.81-12.03,34.41-28.61,42.78C500.93,683.8,494.14,685.44,487.45,685.44z"/>
		</g>
		<g>
			<path class="st1" d="M318.84,685.89c-9.2,0-18.54-2.36-27.24-7.1c-16.2-8.82-27-24.14-27.52-39.01
				c-0.69-19.68-0.4-39.62-0.13-58.9l0.02-1.54c0.22-15.58,12.04-26.91,28.1-26.94c26.25-0.05,52.51-0.04,78.77-0.03l29.16,0.01
				v17.62l-29.17-0.01c-26.24-0.01-52.49-0.02-78.73,0.03c-6.31,0.01-10.43,3.77-10.52,9.58l-0.02,1.54
				c-0.27,19.07-0.55,38.79,0.12,58.04c0.3,8.64,7.67,18.34,18.34,24.15c5.78,3.15,20.93,9.46,36.65,0.05l9.05,15.12
				C337.48,683.42,328.23,685.89,318.84,685.89z"/>
		</g>
		<g>
			<path class="st1" d="M361.12,248.81c-4.1,0-7.45-1.24-9.97-3.71c-4-3.91-4.46-9.32-4.37-14.58c0.27-14.12,0.28-29.31,0.03-49.25
				c-0.05-4.32,0.38-9.22,3.99-12.84c2.46-2.47,5.82-3.72,9.83-3.66c26.13,0.24,52.63,0.24,78.77,0c3.98-0.03,7.36,1.19,9.82,3.67
				c3.61,3.62,4.04,8.53,3.98,12.86c-0.18,14.54-0.31,31.77,0.03,49.24c0.1,5.24-0.36,10.63-4.34,14.54
				c-2.7,2.64-6.38,3.86-10.88,3.72c-9.11-0.36-18.48-0.29-27.55-0.22c-7.36,0.06-14.71,0.06-22.07,0
				c-8.69-0.07-17.67-0.14-26.38,0.22C361.71,248.8,361.41,248.81,361.12,248.81z M421.49,230.9c4.69,0,9.41,0.04,14.14,0.18
				c0-0.07,0-0.14,0-0.21c-0.33-17.17-0.22-34.06-0.05-48.45c-23.67,0.19-47.53,0.19-71.13,0c0.24,19.46,0.22,34.45-0.05,48.43
				c0,0.08,0,0.15,0,0.22c8.13-0.25,16.25-0.19,24.15-0.12c7.27,0.06,14.54,0.06,21.8,0C414.01,230.92,417.74,230.9,421.49,230.9z"
				/>
		</g>
		<g>
			<path class="st1" d="M400.01,698c-48.32,0-80.51-12.51-80.51-73.53h17.62c0,42.85,14.69,55.91,62.89,55.91
				c48.2,0,62.89-13.06,62.89-55.91h17.62C480.52,685.5,448.34,698,400.01,698z"/>
		</g>
		<g>
			<path class="st1" d="M490.24,224.1h-36.6v-17.62h18.66c-0.43-29.11-0.2-57.53,0.09-81.88c0.03-2.52-0.08-4.07-0.21-4.99
				c-47.9,0.44-96.45,0.44-144.34,0c-0.13,0.92-0.24,2.46-0.21,4.95c0.41,32.49,0.44,58.21,0.09,81.88h19.21v17.62h-37.14l0.17-8.98
				c0.5-26.01,0.51-53.86,0.06-90.3c-0.08-6.7,0.49-13.54,5.16-18.24c3.05-3.06,7.13-4.55,12.46-4.55c0.09,0,0.19,0,0.28,0
				c47.84,0.44,96.36,0.44,144.2,0c5.42,0.01,9.61,1.44,12.72,4.56c4.68,4.69,5.24,11.56,5.16,18.27
				c-0.32,26.7-0.57,58.32,0.06,90.3L490.24,224.1z"/>
		</g>
	</g>
	<g>
		<text transform="matrix(1 0 0 1 310.3521 437.1407)"><tspan x="0" y="0" class="st1 st2 st3"> </tspan><tspan x="15.74" y="0" class="st1 st2 st3">مزمز</tspan></text>
		<text transform="matrix(1 0 0 1 322.1616 511.0177)" class="st1 st2 st4">Zamzam</text>
	</g>
</g>
</svg>
