<?xml version="1.0" encoding="utf-8"?>
<!-- Generator: Adobe Illustrator 24.0.0, SVG Export Plug-In . SVG Version: 6.00 Build 0)  -->
<svg version="1.1" id="Layer_1" xmlns="http://www.w3.org/2000/svg" xmlns:xlink="http://www.w3.org/1999/xlink" x="0px" y="0px"
	 viewBox="0 0 800 800" style="enable-background:new 0 0 800 800;" xml:space="preserve">
<style type="text/css">
	.st0{fill:#1A3763;}
	.st1{fill:#6DADDD;}
</style>
<g>
	<g>
		<path class="st0" d="M172.94,713.31c-2.23-1.71-4.87-3.09-6.61-5.2c-3.37-4.07-4.02-8.86-1.75-13.77
			c2.26-4.87,6.24-7.57,11.54-7.82c5.66-0.26,11.33-0.06,17.3-0.06c0-22.62,0-44.56,0-67.17c-21.12,0-42.27,0-63.83,0
			c0-11.75,0-22.83,0-34.23c53.71,0,107.15,0,160.9,0c0,11.22,0,22.15,0,33.84c-21.11,0-42.23,0-63.67,0c0,22.7,0,44.66,0,67.51
			c4.21,0,8.42-0.01,12.63,0c9.68,0.02,15.22,3.31,16.84,10c1.73,7.14-1.23,12.29-9.73,16.89
			C222.03,713.31,197.49,713.31,172.94,713.31z"/>
		<path class="st0" d="M553.35,713.31c-4.75-2.27-8.85-5.15-9.85-10.81c-1.52-8.6,4.26-15.67,13.3-16.03
			c5.27-0.21,10.55-0.04,16.22-0.04c0-22.62,0-44.7,0-67.33c-21.22,0-42.19,0-63.52,0c0-11.61,0-22.68,0-34.04
			c53.68,0,107.12,0,160.91,0c0,11.23,0,22.15,0,33.77c-21.25,0-42.37,0-63.85,0c0,22.78,0,44.87,0,67.59c4.28,0,8.31,0,12.35,0
			c10.1,0.01,14.87,2.72,17.04,9.66c2.12,6.78-0.54,11.89-8.96,17.23C602.44,713.31,577.9,713.31,553.35,713.31z"/>
		<path class="st0" d="M363.15,713.31c-2.83-2.51-6.55-4.52-8.33-7.63c-4.84-8.5,1.46-18.63,11.62-19.18
			c5.47-0.3,10.97-0.05,16.86-0.05c0-22.61,0-44.71,0-67.25c-21.27,0-42.26,0-63.73,0c0-11.5,0-22.57,0-34.05
			c53.44,0,106.88,0,160.8,0c0,10.99,0,22.06,0,33.8c-21.18,0-42.32,0-63.79,0c0,22.61,0,44.54,0,67.46c4.22,0,8.41,0,12.61,0
			c9.9,0.01,15.01,2.97,16.99,9.83c1.93,6.68-1.14,12.24-9.39,17.07C412.23,713.31,387.69,713.31,363.15,713.31z"/>
		<path class="st0" d="M392.61,363.51c-87.97,0-175.2,0-262.93,0c0-70.9,0-141.51,0-212.73c26.11,0,51.99,0,78.63,0
			c0-21.65,0-42.72,0-64.09c10.44,0,20.12,0,30.47,0c0,21.23,0,42.14,0,63.87c51.63,0,102.6,0,153.83,0
			C392.61,221.9,392.61,292.42,392.61,363.51z M260.3,336.35c5.01-7.1,9.92-14.21,6.15-24.16c-1.85-4.88-1.4-10.63-3.29-15.49
			c-3.81-9.77,0.9-16.18,7.21-22.63c19.03,10.94,37.87,21.77,56.66,32.58c7.22-10.09,7.22-10.08,0.69-19.63
			c-11.51-16.83-23.01-33.66-34.54-50.52c5.16-9.08,10.32-17.86,15.18-26.81c4.26-7.84,7.04-16.15,5.05-25.21
			c-1.59-7.2-5.16-9.05-12.14-6.59c-8.52,3.01-14.3,9.27-18.89,16.7c-4.39,7.11-8.67,14.3-12.63,21.66
			c-1.98,3.67-4.2,5.15-8.58,4.75c-18.31-1.68-36.64-3.17-54.99-4.35c-13.19-0.85-10.38-3.34-17.31,10.41
			c18.93,10.94,37.9,21.91,56.51,32.67c-2.39,9.49-6.42,16.03-16.21,17.72c-5.16,0.89-9.96,3.87-15.13,4.79
			c-10.42,1.85-14.08,9.64-17.88,18.16c8.68,2.19,16.93,4.48,25.29,6.31c4.85,1.06,9.05,2.25,8.19,8.96
			c2.66-0.99,4.67-1.74,5.92-2.21C244.04,321.29,252.08,328.73,260.3,336.35z"/>
		<path class="st0" d="M407.56,150.6c51.15,0,101.81,0,153.36,0c0-21.47,0-42.53,0-63.91c10.42,0,19.96,0,30.28,0
			c0,20.92,0,41.99,0,63.65c26.64,0,52.52,0,78.97,0c0,71.23,0,141.86,0,212.98c-87.34,0-174.72,0-262.61,0
			C407.56,292.67,407.56,222.03,407.56,150.6z M646.08,191.89c-71.54,0-142.79,0-214.4,0c0,12.82,0,25.36,0,38.29
			c71.57,0,142.81,0,214.4,0C646.08,217.31,646.08,204.78,646.08,191.89z M449.83,259.82c0,4.72,0,9.03,0,13.26
			c59.7,0,118.87,0,178.02,0c0-4.65,0-8.85,0-13.26C568.34,259.82,509.17,259.82,449.83,259.82z M482.08,297.79
			c37.98,0,75.67,0,113.51,0c0-4.56,0-8.73,0-12.92c-38.11,0-75.79,0-113.51,0C482.08,289.44,482.08,293.46,482.08,297.79z
			 M510.72,322.55c16.53,0,32.58,0,48.88,0c0-4.52,0-8.83,0-13.11c-16.56,0-32.59,0-48.88,0
			C510.72,313.83,510.72,317.83,510.72,322.55z"/>
		<path class="st0" d="M332.61,570.44c0-28.28-0.44-56.02,0.16-83.73c0.37-17.01,14.22-31.31,31.35-31.93
			c23.88-0.86,47.83-0.86,71.71,0c17.14,0.62,30.93,14.88,31.32,31.96c0.62,27.71,0.17,55.45,0.17,83.7
			C422.47,570.44,377.87,570.44,332.61,570.44z"/>
		<path class="st0" d="M657.23,570.6c-45.1,0-89.52,0-134.15,0c0-29.57-1.01-58.9,0.41-88.11c0.75-15.33,14.96-27.22,30.5-27.72
			c23.87-0.77,47.81-0.86,71.68,0.02c17.49,0.65,30.85,14.51,31.35,32.5C657.79,514.77,657.23,542.3,657.23,570.6z"/>
		<path class="st0" d="M277.37,570.7c-45.16,0-89.43,0-134.42,0c-0.13-2.07-0.36-4.01-0.36-5.96c-0.02-24.26-0.06-48.52,0-72.79
			c0.06-23.07,14.33-37.51,37.37-37.67c20.02-0.14,40.05-0.14,60.07,0c23.23,0.16,37.3,14.38,37.34,37.54
			c0.04,24.06,0.01,48.12,0.01,72.17C277.37,566.02,277.37,568.04,277.37,570.7z"/>
	</g>
</g>
</svg>
