<?xml version="1.0" encoding="utf-8"?>
<!-- Generator: Adobe Illustrator 24.0.0, SVG Export Plug-In . SVG Version: 6.00 Build 0)  -->
<svg version="1.1" id="Layer_1" xmlns="http://www.w3.org/2000/svg" xmlns:xlink="http://www.w3.org/1999/xlink" x="0px" y="0px"
	 viewBox="0 0 800 800" style="enable-background:new 0 0 800 800;" xml:space="preserve">
<style type="text/css">
	.st0{fill:#1A3763;}
	.st1{fill:#6DADDD;}
</style>
<g>
	<g>
		<g>
			<g>
				<path class="st0" d="M527.55,664.73l-52.59-52.58l87.53-87.53h-37.1v-74.36h164.04V614.3h-74.36v-37.09L527.55,664.73z
					 M503.72,612.15l23.83,23.83L635.4,528.13v65.84h33.7V470.59H545.73v33.7h65.85L503.72,612.15z"/>
			</g>
		</g>
		<g>
			<path class="st0" d="M297.12,265.9c41.15-0.17,75.09-34.32,75.26-75.73c0.17-41.45-34.32-75.84-75.95-75.72
				c-41.6,0.12-75.95,34.61-75.73,76.03C220.93,231.89,255.56,266.07,297.12,265.9z M295.01,139.82
				c28.19-0.87,51.08,20.84,51.92,49.27c0.81,27.43-21.28,50.62-49.1,51.53c-27.55,0.9-51-21.65-51.81-49.82
				C245.25,163.97,267.65,140.66,295.01,139.82z"/>
			<path class="st0" d="M582.21,211.26L423,370.47c-0.63-52.27-39.02-89.77-91.29-89.99c-23.45-0.1-46.9-0.1-70.35,0
				c-52.64,0.23-91.01,38.66-91.15,91.26c-0.07,27.15-0.01,54.31-0.01,81.46c0,29.87-0.05,59.74,0.02,89.6
				c0.03,11.11,4.67,15.77,15.75,15.92c8.64,0.12,17.32,0.52,25.91-0.13c7.02-0.52,9.04,1.4,8.98,8.73
				c-0.01,1.76-0.01,3.53-0.02,5.29l-28.35,28.35H86.7v84.58h136.09L608.54,299.8l104.77,2.49v-91.02H582.21z M246.05,389.24
				c0.03-6.14-1.63-7.91-7.81-7.8c-17.57,0.32-17.58,0.04-17.58,17.9c0,42.22-0.14,84.44,0.15,126.66c0.04,6.32-1.84,7.77-7.87,7.65
				c-17.51-0.34-17.52-0.07-17.52-17.85c0-47.9-0.15-95.8,0.06-143.7c0.12-26.97,11.75-47.35,36.08-59.91
				c8.05-4.16,16.82-6.18,25.66-6.2c28.86-0.06,57.77-1.8,86.58,0.93c26.76,2.53,51.12,27.68,53.05,54.6
				c0.81,11.33,1.02,22.67,1.07,34.01l-25.38,25.38c0.02-10.39,0.02-20.78,0.09-31.18c0.04-6.46-1.57-8.46-8.21-8.31
				c-17.3,0.4-17.31,0.08-17.31,17.57c0,15.78,0,31.57,0,47.35L245.92,547.55c0-0.67,0-1.35,0-2.03
				C245.92,493.43,245.82,441.34,246.05,389.24z M689.44,277.85l-90.55-2.14L212.91,661.69H110.56v-36.85h91.81l389.71-389.71h97.35
				V277.85z"/>
		</g>
	</g>
</g>
</svg>
