<?xml version="1.0" encoding="utf-8"?>
<!-- Generator: Adobe Illustrator 24.0.0, SVG Export Plug-In . SVG Version: 6.00 Build 0)  -->
<svg version="1.1" id="Layer_1" xmlns="http://www.w3.org/2000/svg" xmlns:xlink="http://www.w3.org/1999/xlink" x="0px" y="0px"
	 viewBox="0 0 800 800" style="enable-background:new 0 0 800 800;" xml:space="preserve">
<style type="text/css">
	.st0{fill:#1A3763;}
	.st1{fill:#6DADDD;}
</style>
<g>
	<g>
		<path class="st1" d="M183.24,279.09c-0.16,3.74-1.73,6.63-5.15,8.39c-3.47,1.79-7.01,1.55-9.72-1.01
			c-6.87-6.49-13.64-13.1-20.03-20.05c-3.45-3.75-3.07-8.33,0.47-12.03c3.53-3.69,8.2-4.42,11.97-1.02
			c7.15,6.44,13.79,13.47,20.52,20.37C182.63,275.11,183.29,277.04,183.24,279.09z"/>
		<path class="st1" d="M156.35,362.8c-7.88,0.02-12.99-7.94-8.88-13.51c6.17-8.37,13.9-15.51,21.92-22.13
			c3.49-2.88,7.83-1.88,11.06,1.33c3.23,3.21,4.26,7.53,1.39,11.05c-6.57,8.07-14.02,15.38-22.05,22.03
			C158.7,362.47,156.95,362.6,156.35,362.8z"/>
		<path class="st1" d="M703.27,510.94c0,3.31-1.28,5.64-3.24,7.62c-5.71,5.75-11.38,11.54-17.21,17.17
			c-4.64,4.47-9.96,4.68-13.86,0.82c-3.9-3.87-3.74-9.24,0.71-13.85c5.76-5.97,11.63-11.84,17.59-17.6c3-2.9,6.59-3.91,10.62-1.98
			C701.36,504.77,702.99,507.62,703.27,510.94z"/>
		<path class="st1" d="M675.03,576.46c3.28,0.03,5.59,1.32,7.57,3.28c5.74,5.72,11.55,11.38,17.17,17.21
			c4.46,4.62,4.63,9.98,0.75,13.86c-3.88,3.88-9.24,3.69-13.85-0.77c-5.96-5.77-11.83-11.64-17.59-17.61
			c-2.9-3-3.88-6.61-1.93-10.62C668.82,578.34,671.68,576.72,675.03,576.46z"/>
		<path class="st1" d="M164.7,316.36c-3.29,0-6.59,0.22-9.86-0.05c-5.14-0.43-8.66-4.34-8.67-9.18c0-4.85,3.52-8.91,8.66-9.15
			c6.56-0.31,13.16-0.31,19.72,0c5.14,0.24,8.67,4.31,8.67,9.15c0,4.82-3.54,8.76-8.66,9.19
			C171.3,316.58,167.99,316.36,164.7,316.36z"/>
		<path class="st1" d="M684.28,567.13c-2.9,0-5.81,0.14-8.7-0.03c-5.56-0.33-9.3-4.05-9.37-9.11c-0.08-5.07,3.62-9.1,9.1-9.33
			c6.18-0.25,12.38-0.23,18.56-0.02c5.54,0.19,9.3,4.03,9.38,9.08c0.08,5.26-3.82,9.11-9.69,9.39
			C690.47,567.25,687.37,567.13,684.28,567.13z"/>
		<path class="st1" d="M378.51,158.57c10.08,0.12,18.37,8.55,18.33,18.64c-0.05,10.1-8.4,18.44-18.5,18.47
			c-10.31,0.03-18.81-8.62-18.6-18.95C359.93,166.61,368.36,158.45,378.51,158.57z"/>
		<path class="st1" d="M471.1,158.57c10.09-0.02,18.5,8.29,18.59,18.37c0.09,10.33-8.49,18.87-18.81,18.73
			c-10.07-0.13-18.35-8.6-18.29-18.68C452.66,166.86,460.96,158.59,471.1,158.57z"/>
		<path class="st1" d="M635.97,531.05c-3.95-0.97-7.52-1.4-8.87-6.3c-0.72-2.62-3.9-3.46-6.61-4.13
			c-7.44-1.83-14.78-4.08-22.29-5.51c-3.78-0.72-6.46-4.1-6.46-7.95c0.16-117.43,0.13-234.86,0.12-352.28
			c0-18.48-14.98-33.46-33.46-33.46c-89.18-0.01-178.37-0.01-267.55,0c-20.94,0-33.26,12.25-33.28,33.06
			c-0.02,34.05-0.11,68.1,0.11,102.14c0.03,4.67-1.04,6.8-5.85,7.71c-7.77,1.46-15.38,3.76-23.07,5.63
			c-3.16,0.76-6.21,2.01-7.15,5.22c-0.98,3.39-3.02,4.03-6.09,4.61c-12.97,2.47-22.24,13.06-22.91,25.67
			c-0.68,12.85,7.49,24.72,19.66,28.26c4.24,1.23,8.95,1.08,10.39,6.95c0.57,2.34,3.72,3.06,6.24,3.68
			c7.32,1.78,14.54,4.04,21.93,5.4c5.27,0.97,6.91,3.02,6.89,8.63c-0.22,102.14-0.16,204.29-0.16,306.43
			c0,12.08,2.98,14.14,16.34,13.73c5.56-0.03,11.15-0.07,16.71-0.11c19.63,0.59,22.66,0.2,22.66-14.53
			c0-141.61,0.03-283.22-0.12-424.83c-0.01-5.07,1.14-6.36,6.3-6.35c70.03,0.19,140.06,0.18,210.09,0.02
			c5.07-0.01,6.75,0.99,6.73,6.49c-0.05,15.32-0.07,66.7-0.08,101.37c-0.01,0.18-0.05,0.35-0.05,0.53
			c-0.01,37.03-0.01,74.06-0.01,111.09c0,71.39-0.01,142.77,0.01,214.16c0,6.71,5.43,12.17,12.14,12.19
			c10.47,0.03,20.93,0.03,31.4,0c6.72-0.02,12.15-5.48,12.16-12.2c0.03-19.93,0.1-39.85-0.08-59.78c-0.03-3.35,0.99-4.72,4.19-5.44
			c8.28-1.87,16.49-4.08,24.74-6.11c3.14-0.77,6.22-2.06,7.11-5.27c0.96-3.46,3.11-3.99,6.13-4.58
			c13.2-2.57,22.47-13.39,22.88-26.29C657.26,545.75,648.77,534.2,635.97,531.05z M220.38,304.63c0.23,0.9,0.04,1.91,0.04,2.87
			c0,1.15,0.16,2.33-0.04,3.45c-0.3,1.74,1.22,4.3-1.06,5.06c-2.03,0.68-4.05-0.9-5.49-2.48c-2.68-2.94-3.49-6.3-1.82-10.08
			c1.36-3.06,3.87-5.66,6.92-5.14C222.12,298.84,219.84,302.45,220.38,304.63z M254.89,331.65c-0.36-0.12-0.76-0.14-1.14-0.21
			c-14.75-2.85-14.75-2.85-14.75-17.91c0-7.73,0.1-15.46-0.05-23.19c-0.05-2.71,0.62-4.2,3.52-4.75c4.89-0.94,9.7-2.27,15.09-3.57
			c0,16.16-0.02,31.78,0.03,47.41C257.59,331.47,256.96,332.32,254.89,331.65z M288.06,660.16c-11.9-0.52-11.92-0.15-11.92-12.23
			c0-164.18,0-328.36,0-492.54c0-11.21,4.34-15.6,14.59-15.51c3.52,0.03,4.16,1.39,4.03,4.43c-0.2,4.44-0.05,8.89-0.05,13.34
			c0,80.83,0,161.66,0,242.5c0,84.31-0.05,168.63,0.12,252.94C294.85,658.46,293.92,660.42,288.06,660.16z M536.27,208.74
			c0.06,4.73-1.44,5.63-5.82,5.63c-70.58-0.13-141.16-0.13-211.74,0c-4.18,0.01-5.59-0.81-5.54-5.33c0.26-21.27,0.26-42.54,0-63.81
			c-0.06-4.5,1.33-5.36,5.53-5.34c35.39,0.17,70.77,0.09,106.16,0.09c35.19,0,70.39,0.07,105.58-0.09c4.37-0.02,5.9,0.87,5.83,5.62
			C535.99,166.58,535.99,187.66,536.27,208.74z M566.47,660.15c-11.74-0.47-11.75-0.15-11.75-11.77c0-82.77,0-165.53,0-248.3v-30.65
			c0-7.99,0-17.59,0-28.3c0-58.54,0-150.34,0-193.98c0-4.38,3.58-7.63,7.94-7.11c5.78,0.7,9.98,4.94,10.55,10.79
			c0.17,1.73,0.08,3.48,0.08,5.22c0,165.81-0.03,331.63,0.14,497.44C573.43,657.31,570.28,660.3,566.47,660.15z M608.04,579.05
			c-5.24,1.12-10.41,2.55-15.95,3.94c0-16.95,0-33.32,0-49.88c5.66,0.46,10.7,2.51,15.96,3.56c2.42,0.48,2.4,2,2.4,3.8
			c-0.02,11.59-0.02,23.18,0,34.78C610.45,577.05,610.45,578.54,608.04,579.05z M637.73,560.78c-1.18,3.34-3.69,6.3-6.99,5.86
			c-3.41-0.45-1.08-4.33-1.7-6.61c-0.2-0.71-0.03-1.53-0.03-2.29c0-1.34-0.11-2.7,0.03-4.03c0.17-1.61-0.91-3.93,0.83-4.66
			c2.08-0.87,4.06,0.74,5.54,2.23C638.04,553.93,639.01,557.13,637.73,560.78z"/>
	</g>
	<path class="st1" d="M346.79,479.1c0-17.29-0.04-34.58,0.01-51.88c0.09-33.5,24.52-57.97,58.05-58.12c14.93-0.07,29.87-0.07,44.8,0
		c33.38,0.15,57.87,24.14,58.15,57.57c0.3,36.31,0.09,72.63,0.05,108.94c-0.01,7.85-2.98,10.66-10.95,10.71
		c-5.5,0.03-11.02,0.29-16.5-0.09c-4.12-0.28-4.87,1.28-4.85,5.05c0.14,31.28,0.08,62.57,0.08,93.85c0,1.26,0.03,2.52-0.01,3.77
		c-0.23,7.23-2.88,9.95-10.11,9.97c-17.45,0.06-34.9,0.02-52.35,0.02c-6.92,0-13.83,0-20.75,0c-11.64,0-13.47-1.8-13.47-13.27
		c0-31.28-0.11-62.57,0.12-93.85c0.04-4.67-1.25-5.9-5.72-5.56c-5.47,0.41-11,0.16-16.5,0.08c-7.05-0.1-10.01-3.07-10.03-10.14
		C346.76,517.14,346.79,498.12,346.79,479.1z M395.02,537.89c0,33.49,0.05,66.98-0.08,100.47c-0.01,3.49,0.84,4.73,4.44,4.51
		c5.01-0.3,10.07-0.33,15.08,0c3.94,0.26,4.97-1.05,4.95-4.96c-0.16-32.39-0.09-64.78-0.09-97.17c0-10.52,0.01-10.29,10.47-10.62
		c4.47-0.14,5.76,0.95,5.73,5.61c-0.22,34.12-0.07,68.24-0.19,102.36c-0.01,3.53,0.65,5.1,4.58,4.79c4.53-0.36,9.14-0.41,13.66,0.01
		c4.7,0.43,6.03-0.99,6.01-5.85c-0.18-64.15-0.12-128.3-0.12-192.45c0-11.14,0-10.93,11.02-11.19c4.23-0.1,5.26,1.17,5.23,5.29
		c-0.18,26.73-0.09,53.46-0.09,80.19c0,11.5,0,11.35,11.65,11.46c3.49,0.03,4.6-0.87,4.56-4.45c-0.19-15.09,0.05-30.19-0.11-45.28
		c-0.21-19.96,0.85-39.94-0.58-59.87c-1.23-17.14-16.74-33.16-33.78-34.77c-18.35-1.74-36.76-0.63-55.14-0.59
		c-5.63,0.01-11.22,1.3-16.34,3.95c-15.5,8-22.9,20.98-22.98,38.16c-0.13,30.5-0.04,61.01-0.04,91.51c0,11.32,0,11.15,11.16,11.37
		c3.84,0.07,5.04-0.85,5.01-4.87c-0.19-26.89-0.1-53.77-0.1-80.66c0-11.37,0-11.19,11.2-11.4c3.93-0.07,4.99,1.05,4.97,4.97
		C394.95,471.54,395.02,504.71,395.02,537.89z"/>
	<path class="st1" d="M427.19,256.55c26.51-0.08,48.48,21.82,48.37,48.22c-0.11,26.37-21.72,48.12-47.93,48.23
		c-26.47,0.11-48.52-21.65-48.66-48.03C378.82,278.59,400.7,256.62,427.19,256.55z M459.34,304.08
		c-0.54-18.1-15.11-31.93-33.06-31.38c-17.42,0.54-31.69,15.38-31.2,32.46c0.52,17.94,15.45,32.3,32.99,31.73
		C445.79,336.32,459.86,321.55,459.34,304.08z"/>
</g>
</svg>
