<?xml version="1.0" encoding="utf-8"?>
<!-- Generator: Adobe Illustrator 24.0.0, SVG Export Plug-In . SVG Version: 6.00 Build 0)  -->
<svg version="1.1" id="Layer_1" xmlns="http://www.w3.org/2000/svg" xmlns:xlink="http://www.w3.org/1999/xlink" x="0px" y="0px"
	 viewBox="0 0 800 800" style="enable-background:new 0 0 800 800;" xml:space="preserve">
<style type="text/css">
	.st0{fill:#1A3763;}
	.st1{fill:#6DADDD;}
</style>
<g>
	<g>
		<path class="st0" d="M554.19,406.28c-0.27,77.14-58.63,154.04-154.57,153.98c-96.26-0.06-154.31-78.2-153.64-154.1
			c0.63-71.88,52.87-153.04,154.42-153.78C485.2,251.76,554.25,321.71,554.19,406.28z M290.41,414.73c-7.47,0-14.94,0.21-22.4-0.08
			c-4.05-0.16-5.14,1.22-4.73,5.12c2.61,24.87,11.23,47.38,25.87,67.64c1.51,2.09,2.73,2.51,4.98,1.02
			c9.06-5.98,18.75-10.77,28.91-14.56c2.63-0.98,3.25-2.2,2.51-4.99c-4.29-16.28-7.03-32.82-7.54-49.67
			c-0.11-3.8-1.77-4.63-5.2-4.53C305.35,414.88,297.87,414.73,290.41,414.73z M509.69,414.74c-7.65,0-15.31,0.14-22.96-0.06
			c-3.37-0.09-4.61,1.08-4.72,4.44c-0.54,16.85-3.28,33.39-7.51,49.68c-0.7,2.71-0.33,4.04,2.4,5.04
			c10.18,3.76,19.84,8.61,28.92,14.54c2.19,1.43,3.45,1.28,5.01-0.88c14.73-20.43,23.41-43.11,25.95-68.19
			c0.41-4.03-1.22-4.71-4.68-4.62C524.63,414.86,517.16,414.73,509.69,414.74z M290.42,397.92c7.65,0,15.3-0.15,22.95,0.07
			c3.44,0.1,4.53-1.2,4.63-4.48c0.55-16.84,3.31-33.37,7.52-49.66c0.61-2.35,0.58-3.71-2.07-4.72c-10.47-3.99-20.51-8.89-29.87-15.1
			c-1.89-1.25-2.95-0.67-4.11,0.92c-15.07,20.66-23.92,43.66-26.25,69.16c-0.27,3,0.75,3.91,3.68,3.85
			C274.74,397.82,282.58,397.92,290.42,397.92z M509.79,397.93c7.28,0,14.56-0.21,21.83,0.08c4.07,0.16,5.63-0.77,5.13-5.21
			c-2.73-24.63-11.19-46.99-25.66-67.11c-1.53-2.12-2.7-3.02-5.33-1.26c-9.02,6.02-18.75,10.73-28.87,14.58
			c-2.32,0.88-3.23,1.87-2.53,4.51c4.36,16.45,7.11,33.17,7.64,50.19c0.11,3.56,1.63,4.34,4.84,4.27
			C494.49,397.8,502.14,397.93,509.79,397.93z M363.6,414.73c-8.02,0-16.06,0.19-24.07-0.08c-4.06-0.14-5.01,1.3-4.78,5.17
			c0.89,14.76,3.28,29.25,6.79,43.59c0.75,3.07,1.65,3.8,4.88,2.98c13.4-3.41,27.01-5.68,40.86-6.05c3.53-0.1,4.39-1.56,4.36-4.78
			c-0.12-12.13-0.14-24.26,0.01-36.39c0.04-3.41-1.13-4.58-4.54-4.5C379.28,414.87,371.44,414.74,363.6,414.73z M437.16,414.73
			c-8.02,0-16.05,0.1-24.07-0.05c-3.2-0.06-4.77,0.69-4.72,4.3c0.16,12.31,0.12,24.63,0.02,36.95c-0.03,3.05,0.99,4.29,4.16,4.38
			c14.04,0.42,27.82,2.73,41.41,6.15c2.52,0.63,3.67,0.44,4.35-2.33c3.64-14.89,6.21-29.92,6.98-45.25c0.16-3.23-0.88-4.27-4.06-4.2
			C453.21,414.84,445.18,414.74,437.16,414.73z M363.03,397.92c8.2,0,16.4-0.08,24.6,0.04c2.79,0.04,4.02-0.76,4-3.77
			c-0.11-12.67-0.07-25.35-0.03-38.02c0.01-2.21-0.6-3.34-3.1-3.48c-14.34-0.84-28.54-2.71-42.46-6.39
			c-2.39-0.63-3.71-0.16-4.39,2.58c-3.65,14.87-6.2,29.89-6.94,45.21c-0.14,2.96,0.78,3.94,3.71,3.89
			C346.62,397.83,354.83,397.92,363.03,397.92z M436.85,397.93c8.02,0,16.03-0.11,24.04,0.06c3.26,0.07,4.61-0.64,4.4-4.33
			c-0.86-14.93-3.3-29.58-6.77-44.11c-0.88-3.68-2.51-3.81-5.52-3c-13.18,3.54-26.67,5.24-40.25,6.06c-3.38,0.2-4.45,1.21-4.4,4.57
			c0.17,12.11,0.16,24.23,0.01,36.35c-0.04,3.37,1,4.57,4.45,4.48C420.82,397.78,428.84,397.92,436.85,397.93z M391.59,510.24
			c0-9.52-0.13-19.03,0.07-28.55c0.07-3.6-0.92-4.88-4.72-4.62c-11.75,0.78-23.31,2.6-34.81,5.14c-3.74,0.83-4.37,2.05-3.03,5.6
			c6.27,16.64,14.53,32.2,23.73,47.41c3.67,6.07,8.44,7.52,14.56,8.03c3.16,0.26,4.3-0.64,4.25-3.9
			C391.49,529.65,391.59,519.95,391.59,510.24z M408.42,509.85c0,9.7-0.02,19.41,0.02,29.11c0.01,1.42-0.49,3.1,1.02,4.12
			c1.98,1.33,12.88-1.27,14.45-3.51c11.43-16.26,20.27-33.86,27.27-52.43c1.22-3.25,0.07-4.09-2.93-4.79
			c-11.46-2.69-23.04-4.42-34.78-5.25c-3.89-0.28-5.25,0.73-5.13,4.78C408.6,491.19,408.42,500.52,408.42,509.85z M391.59,302.99
			c0-9.7,0.04-19.41-0.04-29.11c-0.01-1.49,0.73-3.42-1.65-4.17c-4.17-1.33-12.34,1.36-14.89,5.08
			c-10.7,15.6-19.16,32.35-25.86,50.04c-1.5,3.96-0.62,4.94,3.27,5.83c11.31,2.58,22.75,4,34.26,5.19c4.14,0.43,5.07-1.05,4.99-4.86
			C391.45,321.65,391.59,312.32,391.59,302.99z M408.42,302.52c0,9.7,0.11,19.41-0.06,29.11c-0.06,3.42,0.95,4.57,4.5,4.23
			c11.89-1.13,23.71-2.59,35.36-5.34c3.46-0.82,4.05-1.94,2.8-5.26c-6.33-16.82-14.56-32.61-24.03-47.88
			c-3.53-5.69-7.94-7.56-14.18-7.73c-3.6-0.1-4.51,0.96-4.46,4.32C408.52,283.48,408.42,293,408.42,302.52z M446.78,277.36
			c8.58,14.76,15.39,28.8,20.61,43.59c0.53,1.5,0.92,3.51,3.37,2.5c9.17-3.78,18.26-7.71,26.63-13.77
			C482.88,295.37,466.75,284.74,446.78,277.36z M353.22,277.35c-20.04,7.57-36.38,18.03-50.6,32.45c8.31,5.6,16.87,9.6,25.63,13.28
			c2.79,1.17,3.6,0.03,4.39-2.21C337.82,306.08,344.69,292.06,353.22,277.35z M447.59,534.23c1.37,0,1.95,0.15,2.4-0.02
			c17.04-6.59,32.01-16.39,45.26-28.94c2.54-2.4,1.01-3.2-0.93-4.38c-7-4.26-14.37-7.74-21.9-10.95c-2.9-1.24-4.14-0.75-5.19,2.28
			c-3.68,10.73-8.42,21.03-13.67,31.08C451.72,526.83,449.75,530.29,447.59,534.23z M351.52,534.52c0.13-0.78,0.35-1.2,0.22-1.43
			c-7.55-13.52-14.36-27.38-19.43-42.04c-0.96-2.79-2.61-1.9-4.34-1.21c-7.61,3.08-14.92,6.74-22.04,10.85
			c-3.06,1.77-2.88,2.97-0.48,5.21c8.78,8.18,18.31,15.29,28.87,21C339.82,529.88,345.35,532.82,351.52,534.52z"/>
		<g>
			<path class="st0" d="M625.59,355.32c0.07-39.44,0.11-100.22-0.26-121.14c-0.28-15.6-11.67-28.19-26.89-31.71
				c-5.74-1.33-11.54-1.04-17.28-0.77c-4.74,0.23-6.43-0.87-6.3-6.04c0.38-15.3,0.21-30.62,0.12-45.92
				c-0.16-25.4-20.72-41.26-45.37-35.1c-114.81,28.69-229.62,57.38-344.43,86.07c-9.69,2.42-10.76,3.79-10.76,13.81
				c0,100.41,0,263.62,0,368.58c-0.06,20.71-0.12,41.42,0.14,62.13c0.21,16.76,8.41,29.06,23.15,36.87
				c3.72,1.97,7.88,3.09,11.84,4.6c126.97,0,253.95,0,380.92,0c0.27-0.24,0.5-0.62,0.81-0.71c24.22-7.3,34.32-20.9,34.32-46.35
				c0.01-94.65,0-189.3,0-283.94C625.6,355.56,625.59,355.44,625.59,355.32z M255.14,200.61c31.43-7.87,62.85-15.74,94.28-23.6
				c60.74-15.19,121.48-30.37,182.22-45.55c4.52-1.13,8.97-2.37,13.73-0.78c7.58,2.54,12.64,8.59,12.73,16.57
				c0.19,16.79-0.08,33.59,0.2,50.38c0.08,4.7-2.64,3.95-5.37,3.95c-32.1,0-64.19,0-96.29,0c-65.13,0-130.25,0-195.38,0
				c-2.04,0-4.09,0-6.13,0C255.12,201.26,255.13,200.94,255.14,200.61z M578.87,669.89c-119.29,0-238.58,0-357.87-0.01
				c-2.98,0-6.02,0.11-8.93-0.43c-12.61-2.35-20.73-12.41-20.8-26.01c-0.09-16.56-0.07-33.13-0.07-49.69c0-0.02,0-0.04,0-0.07
				c0.02-100.45,0.05-268.52-0.09-368.96c-0.01-5.06,1.25-6.46,6.42-6.44c65.16,0.19,130.32,0.12,195.48,0.12
				c33.98,0,67.96,0,101.94,0c31.55,0,63.11-0.03,94.66,0.02c9.69,0.01,17.35,5.83,18.76,14.29c0.48,2.92,0.41,5.95,0.42,8.93
				c0.03,21.5-0.02,95.27,0.03,129.4c-0.01,89.73-0.01,179.45-0.02,269.18C608.79,660.39,599.18,669.89,578.87,669.89z"/>
			<path class="st0" d="M591.45,689.24l-382.81-0.17c-1.22-0.47-2.47-0.9-3.71-1.33c-2.8-0.96-5.7-1.97-8.41-3.41
				c-15.81-8.37-24.28-21.89-24.5-39.07c-0.26-20.52-0.2-41.38-0.14-61.55V214.52c0-11.14,1.9-13.57,12.68-16.27l344.43-86.07
				c12.71-3.16,24.82-0.97,34.09,6.21c9.23,7.17,14.35,18.29,14.44,31.34l0.04,5.73c0.09,13.2,0.18,26.84-0.16,40.27
				c-0.06,2.37,0.34,2.95,0.46,3.07c0.15,0.15,0.8,0.5,3.18,0.36c5.87-0.27,11.9-0.57,17.97,0.83c16.7,3.86,28.56,17.9,28.85,34.14
				c0.36,20.01,0.34,76.95,0.26,121.19l-2.54-0.01h2.54h-2.54l2.54,0.12l0.01,284.19c0,26.4-10.68,40.97-35.68,48.65L591.45,689.24z
				 M210.01,684.16h379.41c0.3-0.24,0.67-0.47,1.14-0.61c23.08-6.96,32.5-19.69,32.5-43.93l-0.01-284.32
				c0.08-44.22,0.1-101.12-0.26-121.08c-0.25-13.91-10.5-25.95-24.92-29.29c-5.38-1.24-10.81-0.97-16.55-0.71
				c-2.46,0.11-5.17-0.01-7.01-1.8c-1.87-1.83-2.04-4.61-1.98-6.83c0.33-13.35,0.24-26.95,0.16-40.1l-0.04-5.75
				c-0.07-11.46-4.5-21.17-12.48-27.36c-8-6.21-18.56-8.09-29.75-5.29l-344.43,86.07c-8.59,2.15-8.84,2.46-8.84,11.35l0,368.57
				l0,0.63c-0.06,20.15-0.12,40.99,0.14,61.47c0.19,15.43,7.53,27.1,21.8,34.66c2.37,1.25,4.96,2.15,7.69,3.09
				C207.73,683.34,208.88,683.74,210.01,684.16z M507.29,672.43L221,672.41l-1.24,0.01c-2.66-0.01-5.41,0.02-8.15-0.49
				c-13.82-2.58-22.79-13.76-22.87-28.48c-0.08-15.57-0.08-31.13-0.07-46.69l0.01-17.48c0.02-101.49,0.04-258.78-0.1-354.57
				c0-2.55,0.24-5.15,2.04-6.95c1.8-1.8,4.36-2.19,6.92-2.03c51.86,0.15,103.72,0.14,155.57,0.13l168.88-0.01
				c22.54,0,45.08-0.01,67.62,0.02c10.91,0.01,19.65,6.76,21.26,16.41c0.46,2.79,0.46,5.6,0.45,8.31l0.01,49.43
				c0,28.42-0.01,61.31,0.02,81l-0.02,269.19c0,21.68-10.62,32.22-32.46,32.22H507.29z M221,667.34l357.87,0.01
				c18.94,0,27.38-8.37,27.38-27.14l0.02-269.18c-0.03-19.69-0.03-52.58-0.02-81.01l-0.01-49.43c0.01-2.63,0.01-5.11-0.39-7.48
				c-1.2-7.27-7.74-12.16-16.26-12.17c-22.53-0.03-45.06-0.02-67.61-0.02l-168.88,0.01c-51.86-0.01-103.73,0.02-155.59-0.13
				c-0.02,0-0.04,0-0.06,0c-2.36,0-3.06,0.34-3.27,0.55c-0.25,0.25-0.55,1.04-0.55,3.35c0.14,95.79,0.12,253.08,0.1,354.58
				l-0.01,17.47c-0.01,15.55-0.01,31.11,0.07,46.67c0.07,12.37,7.24,21.38,18.73,23.53c2.26,0.42,4.66,0.39,7.19,0.4L221,667.34z
				 M554.85,204.17c-0.35,0-0.69-0.01-1.01-0.03l-0.92-0.02H252.5l0.17-5.5l96.15-24.07L531.03,129c5.17-1.29,9.91-2.5,15.15-0.72
				c8.81,2.95,14.35,10.21,14.45,18.94c0.08,7.58,0.07,15.17,0.07,22.75c-0.01,9.21-0.02,18.41,0.13,27.62
				c0.04,2.31-0.5,3.98-1.64,5.11C557.9,203.97,556.3,204.17,554.85,204.17z M271.84,199.05l282.17,0.03
				c0.54,0.01,1.36,0.05,1.67-0.04c-0.03-0.06,0.09-0.46,0.08-1.36c-0.16-9.23-0.15-18.47-0.13-27.71
				c0.01-7.56,0.02-15.12-0.07-22.69c-0.08-6.6-4.19-11.91-11-14.19c-3.83-1.29-7.66-0.33-11.7,0.69L271.84,199.05z"/>
		</g>
		<path class="st0" d="M400,582.37c35.27,0,70.53,0,105.8,0c1.86,0,3.75-0.11,5.59,0.14c4.25,0.57,6.76,3.24,7.2,7.36
			c0.44,4.17-1.63,7.11-5.59,8.68c-2.17,0.85-4.42,0.61-6.64,0.61c-70.91,0.01-141.82,0.01-212.72,0c-1.86,0-3.78,0.11-5.56-0.32
			c-4.32-1.04-6.91-3.92-6.69-8.41c0.23-4.69,2.98-7.66,7.78-7.95c4.65-0.28,9.33-0.11,13.99-0.11
			C335.44,582.36,367.72,582.37,400,582.37z"/>
		<path class="st0" d="M399.99,642.02c-28.55,0-57.1-0.05-85.65,0.05c-4.75,0.02-8.54-1.12-10.25-5.92
			c-1.54-4.33,1.16-9.22,5.87-10.42c2.12-0.54,4.43-0.49,6.65-0.5c55.61-0.02,111.22-0.02,166.83-0.02c0.93,0,1.87-0.02,2.8,0.01
			c6.39,0.2,10.25,3.57,10.07,8.77c-0.17,4.96-3.88,8-10.1,8.01C457.46,642.04,428.72,642.02,399.99,642.02z"/>
	</g>
</g>
</svg>
