<?xml version="1.0" encoding="utf-8"?>
<!-- Generator: Adobe Illustrator 24.0.0, SVG Export Plug-In . SVG Version: 6.00 Build 0)  -->
<svg version="1.1" id="Layer_1" xmlns="http://www.w3.org/2000/svg" xmlns:xlink="http://www.w3.org/1999/xlink" x="0px" y="0px"
	 viewBox="0 0 800 800" style="enable-background:new 0 0 800 800;" xml:space="preserve">
<style type="text/css">
	.st0{fill:#1A3763;}
	.st1{fill:#6DADDD;}
	.st2{font-family:'Rubik-Bold';}
	.st3{font-size:72.141px;}
	.st4{font-size:36.057px;}
</style>
<g>
	<g>
		<g>
			<path class="st1" d="M505.97,368.28c-0.07,0-0.13,0-0.2,0c-25.91-0.12-52.27-0.1-77.75-0.08l-63.15,0.01l-70.48,0
				c-17.52,0-24.88-9.17-27.96-16.86c-4.77-11.88-1.88-26.27,7.03-34.97l20.36-19.86c16.56-16.15,33.12-32.29,49.62-48.5
				c4.12-4.05,8.79-5.99,14.53-5.9c26.81,0.13,55.03,0.13,83.89,0.01c0.03,0,0.06,0,0.1,0c5.93,0,10.54,1.82,14.52,5.73
				c14.42,14.17,28.89,28.29,43.36,42.42c9.01,8.79,18.03,17.59,27.03,26.4c8.77,8.57,11.58,24.15,6.4,35.46
				C528.34,362.85,519.16,368.28,505.97,368.28z M455.73,351c16.65,0,33.47,0.02,50.11,0.09c0.05,0,0.1,0,0.14,0
				c7.33,0,9.97-2.45,11.65-6.13c2.2-4.79,0.87-12.42-2.79-16c-9-8.81-18.01-17.59-27.01-26.39c-14.48-14.14-28.97-28.27-43.4-42.46
				c-0.58-0.57-0.81-0.88-2.5-0.8c-28.91,0.12-57.18,0.12-84.03-0.01c-0.02,0-0.04,0-0.06,0c-1.18,0-1.5,0.14-2.35,0.98
				c-16.52,16.22-33.09,32.38-49.66,48.54l-20.35,19.85c-3.94,3.85-5.27,10.84-3.09,16.27c0.79,1.97,2.43,6.07,12.01,6.07l70.47,0
				l63.14-0.01C437.15,351,446.42,351,455.73,351z"/>
		</g>
		<g>
			<path class="st1" d="M463.12,555.6c-10.52,0-21.03,0-31.55,0l-31.56,0l-34.52,0c-23.02,0-46.03,0-69.05,0
				c-18.67-0.01-29.39-10.65-29.39-29.2c-0.01-46.36-0.02-92.72,0-139.08c0.01-18.11,10.88-28.92,29.07-28.93
				c69.24-0.01,138.48-0.01,207.72,0c18.22,0.01,29.1,10.81,29.11,28.9c0.02,46.56,0.02,93.12-0.01,139.67
				c-0.01,17.65-11.03,28.62-28.77,28.64C490.5,555.6,476.81,555.6,463.12,555.6z M400.02,538.4l31.56,0
				c24.19,0.01,48.39,0.01,72.59-0.01c8.33-0.01,11.58-3.22,11.59-11.45c0.03-46.55,0.02-93.1,0.01-139.66
				c-0.01-8.64-3.12-11.71-11.92-11.71c-69.23-0.01-138.47-0.01-207.71,0c-8.77,0.01-11.88,3.08-11.89,11.75
				c-0.02,46.35-0.01,92.71,0,139.06c0.01,8.98,3.09,12.01,12.21,12.02c23.01,0.01,46.02,0,69.04,0L400.02,538.4z"/>
		</g>
		<g>
			<path class="st1" d="M485.35,678.59c-8.37,0-16.56-2.63-23.87-7.84l9.98-14c9.93,7.08,19.45,4.82,25.68,1.67
				c10.55-5.33,18.32-16.55,18.48-26.68c0.21-12.82,0.15-25.9,0.11-38.55c-0.02-4.78-0.04-9.55-0.04-14.33
				c-0.01-10.87-4.28-12.93-12.15-12.94c-26.55-0.01-53.11-0.01-79.65-0.01h-23.89v-17.19h23.89c26.54,0,53.1,0,79.66,0.01
				c18.63,0.01,29.32,10.98,29.34,30.11c0.01,4.76,0.02,9.52,0.04,14.28c0.05,12.73,0.1,25.9-0.11,38.89
				c-0.26,16.41-11.74,33.58-27.92,41.75C498.51,676.98,491.88,678.59,485.35,678.59z"/>
		</g>
		<g>
			<path class="st1" d="M320.79,679.03c-8.98,0-18.1-2.31-26.58-6.93c-15.81-8.61-26.36-23.56-26.86-38.08
				c-0.67-19.21-0.39-38.66-0.13-57.48l0.02-1.5c0.22-15.21,11.75-26.27,27.43-26.3c25.62-0.05,51.25-0.04,76.87-0.03l28.46,0.01
				v17.19l-28.47-0.01c-25.61-0.01-51.23-0.01-76.84,0.03c-6.15,0.01-10.18,3.68-10.26,9.35l-0.02,1.5
				c-0.26,18.61-0.54,37.86,0.12,56.64c0.29,8.43,7.48,17.9,17.89,23.57c5.64,3.07,20.43,9.23,35.77,0.05l8.83,14.75
				C338.98,676.62,329.96,679.03,320.79,679.03z"/>
		</g>
		<g>
			<path class="st1" d="M362.05,252.44c-4,0-7.27-1.21-9.73-3.62c-3.91-3.81-4.36-9.09-4.26-14.23c0.26-13.78,0.27-28.61,0.03-48.07
				c-0.05-4.21,0.37-9,3.89-12.53c2.4-2.41,5.68-3.63,9.6-3.58c25.5,0.24,51.37,0.24,76.88,0c3.88-0.03,7.18,1.17,9.58,3.58
				c3.52,3.54,3.94,8.33,3.89,12.55c-0.17,14.19-0.3,31.01,0.03,48.05c0.1,5.12-0.35,10.38-4.24,14.19
				c-2.63,2.58-6.23,3.77-10.62,3.63c-8.9-0.35-18.04-0.28-26.89-0.22c-7.18,0.05-14.36,0.06-21.54,0
				c-8.48-0.07-17.24-0.14-25.75,0.22C362.63,252.43,362.34,252.44,362.05,252.44z M420.98,234.96c4.57,0,9.19,0.04,13.8,0.18
				c0-0.07,0-0.13,0-0.2c-0.33-16.76-0.21-33.24-0.05-47.29c-23.1,0.19-46.39,0.19-69.42,0c0.23,19,0.21,33.62-0.05,47.27
				c0,0.07,0,0.15,0,0.22c7.93-0.25,15.86-0.19,23.57-0.12c7.09,0.06,14.19,0.05,21.27,0C413.68,234.98,417.31,234.96,420.98,234.96
				z"/>
		</g>
		<g>
			<path class="st1" d="M400.01,690.85c-47.16,0-78.58-12.2-78.58-71.76h17.19c0,41.82,14.34,54.57,61.38,54.57
				c47.04,0,61.38-12.75,61.38-54.57h17.19C478.59,678.64,447.18,690.85,400.01,690.85z"/>
		</g>
		<g>
			<path class="st1" d="M488.07,228.32h-35.72v-17.19h18.21c-0.42-28.41-0.2-56.15,0.09-79.91c0.03-2.46-0.08-3.97-0.2-4.87
				c-46.75,0.43-94.14,0.43-140.88,0c-0.13,0.9-0.24,2.4-0.21,4.84c0.4,31.71,0.43,56.81,0.09,79.92h18.75v17.19h-36.25l0.17-8.76
				c0.48-25.38,0.5-52.56,0.05-88.13c-0.08-6.54,0.47-13.22,5.04-17.8c2.98-2.99,6.96-4.44,12.16-4.44c0.09,0,0.18,0,0.28,0
				c46.69,0.43,94.04,0.43,140.74,0c5.29,0.01,9.38,1.4,12.42,4.45c4.57,4.58,5.12,11.28,5.04,17.83
				c-0.31,26.06-0.55,56.92,0.06,88.13L488.07,228.32z"/>
		</g>
	</g>
	<g>
		<text transform="matrix(1 0 0 1 312.5034 436.2512)"><tspan x="0" y="0" class="st1 st2 st3"> </tspan><tspan x="15.37" y="0" class="st1 st2 st3">مزمز</tspan></text>
		<text transform="matrix(1 0 0 1 324.0308 508.3527)" class="st1 st2 st4">Zamzam</text>
	</g>
</g>
</svg>
