<?xml version="1.0" encoding="utf-8"?>
<!-- Generator: Adobe Illustrator 24.0.0, SVG Export Plug-In . SVG Version: 6.00 Build 0)  -->
<svg version="1.1" id="Layer_1" xmlns="http://www.w3.org/2000/svg" xmlns:xlink="http://www.w3.org/1999/xlink" x="0px" y="0px"
	 viewBox="0 0 800 800" style="enable-background:new 0 0 800 800;" xml:space="preserve">
<style type="text/css">
	.st0{fill:#1A3763;}
	.st1{fill:#6DADDD;}
</style>
<g>
	<g>
		<path class="st1" d="M666.23,484.38H215.28H666.23c4.23-0.37,8.53-0.23,12.78-0.01c5.53,0.28,9.14,3.7,9.23,9.23
			c0.21,12.4,0.22,24.8,0,37.2c-0.11,5.91-4,9.19-10.38,9.28c-8.49,0.11-16.99,0.03-26.36,0.03c8.32,13.28,11.36,26.8,6.84,41.45
			c-3.01,9.77-8.54,17.75-16.75,23.79c-17,12.52-39.59,12.23-56.2-0.63c-18.83-14.58-21.86-34.19-9.8-64.38c-98.46,0-196.83,0-296,0
			c8.61,13.53,11.4,27.7,6.25,42.78c-3.29,9.62-9.17,17.41-17.61,23.19c-17.32,11.86-40.15,10.8-56.16-2.59
			c-18.11-15.15-20.81-34.97-8.33-63.61c-13.92,0-27.6,0-41.28,0c-11.02-0.01-13.59-2.6-13.59-13.74
			c0-92.43-0.04-184.86,0.11-277.29c0.01-5.07-0.94-7.19-6.51-6.74c-6.74,0.54-13.56,0.22-20.34,0.1
			c-6.88-0.12-10.36-3.57-10.43-10.44c-0.11-11.63-0.11-23.25,0-34.88c0.07-6.89,3.54-10.4,10.43-10.42
			c24.03-0.08,48.06-0.09,72.08,0c7.23,0.03,10.44,3.71,10.45,11.6c0.03,36.62,0.01,73.25,0.01,109.87
			c0,56.58,0.05,113.16-0.1,169.74c-0.01,4.72,0.56,7.21,6.13,6.5 M418.62,521.51c79.83,0,159.66,0,239.49,0
			c11.63,0,11.28-0.01,11.77-11.84c0.23-5.7-1.43-6.9-6.97-6.9c-154.23,0.17-308.47,0.13-462.7,0.13
			c-11.78,0-14.14-2.39-14.14-14.35c0-92.42-0.04-184.85,0.11-277.27c0.01-4.69-0.92-6.31-5.93-6.14c-12,0.4-24.02,0.13-36.04,0.13
			c-14.64,0-14.53,0-14.03,14.75c0.11,3.07,0.99,3.99,4,3.91c6.58-0.19,13.17-0.06,19.76-0.06c10.96,0.01,13.52,2.62,13.52,13.8
			c0,92.42,0.04,184.85-0.11,277.27c-0.01,5.17,1.12,6.71,6.55,6.7C255.47,521.45,337.05,521.51,418.62,521.51z M242.03,540.15
			c-15.21-0.07-27.82,12.26-28.03,27.41c-0.22,15.45,12.25,28.2,27.71,28.33c15.13,0.13,27.86-12.33,28.04-27.42
			C269.93,552.98,257.44,540.22,242.03,540.15z M613.97,540.15c-15.2-0.02-27.76,12.36-27.92,27.52
			c-0.16,15.44,12.36,28.14,27.82,28.22c15.12,0.08,27.81-12.43,27.93-27.53C641.92,552.88,629.39,540.17,613.97,540.15z"/>
		<path class="st1" d="M241.8,577.27c-5.05-0.04-9.22-4.28-9.19-9.32c0.04-5.06,4.26-9.23,9.31-9.19c5.05,0.04,9.23,4.27,9.2,9.31
			C251.09,573.11,246.83,577.31,241.8,577.27z"/>
		<path class="st1" d="M613.85,558.76c5.04-0.04,9.28,4.14,9.32,9.19c0.04,5.03-4.16,9.28-9.19,9.32c-5.04,0.04-9.27-4.15-9.31-9.2
			C604.63,563.02,608.79,558.8,613.85,558.76z"/>
	</g>
	<g>
		<path class="st1" d="M424.86,185.58c8.76-0.23,17.53-0.13,26.3-0.06c6.45,0.05,9.33,2.95,9.36,9.47
			c0.06,16.04,0.2,32.09-0.09,48.13c-0.08,4.61,0.83,6.09,5.81,6.04c27.78-0.28,55.57-0.15,83.36-0.13
			c18.49,0.01,30.04,11.52,30.04,30.01c0.02,59.38,0.02,118.76,0,178.14c-0.01,18.49-11.55,30.05-30.01,30.05
			c-45.65,0.02-91.3,0.01-136.95,0.01c-45.32,0-90.64,0-135.96,0c-15.66,0-24.69-6.4-29.63-21.17l-0.83-23.86
			c-0.16-54.41-0.11-108.82-0.1-163.23c0.01-18.45,11.56-29.93,30.1-29.94c27.95-0.02,55.9-0.09,83.85,0.09
			c3.99,0.03,5.33-0.76,5.26-5.05c-0.28-16.37-0.15-32.74-0.09-49.12c0.02-6.51,2.9-9.38,9.38-9.43c8.76-0.07,17.53-0.17,26.29,0.06
			L424.86,185.58z M341.43,367.98c0,32.74,0.07,65.49-0.09,98.23c-0.02,4,0.79,5.26,5.06,5.25c44.32-0.17,88.64-0.17,132.96,0
			c4.2,0.02,5.11-1.14,5.1-5.2c-0.13-65.49-0.12-130.97-0.02-196.46c0.01-3.72-0.72-5.01-4.79-5c-44.48,0.16-88.97,0.16-133.45,0.01
			c-3.99-0.01-4.86,1.14-4.84,4.94C341.49,302.5,341.43,335.24,341.43,367.98z M293.79,368.37c0-18.85,0-37.69,0-56.54
			c0-14.22-0.12-28.44,0.08-42.65c0.05-3.53-0.97-4.61-4.42-4.35c-3.95,0.3-7.93,0.07-11.9,0.07c-11.51,0.01-15.52,3.99-15.52,15.45
			c0,46.29,0,92.57,0,138.86c0,12.89-0.04,25.79,0.02,38.68c0.04,8.75,4.73,13.36,13.54,13.45c4.46,0.05,8.95-0.25,13.38,0.09
			c3.89,0.3,4.94-0.94,4.92-4.87C293.71,433.83,293.79,401.1,293.79,368.37z M531.99,367.9c0,19.18,0,38.35,0,57.53
			c0,13.89,0.12,27.77-0.09,41.66c-0.05,3.54,0.98,4.6,4.43,4.34c3.95-0.3,7.93-0.06,11.9-0.07c11.48-0.01,15.52-4.02,15.52-15.46
			c0-47.94,0-95.88,0-143.82c0-11.24,0.05-22.48-0.02-33.72c-0.05-8.74-4.74-13.35-13.55-13.44c-4.46-0.04-8.95,0.26-13.38-0.09
			c-3.91-0.31-4.92,0.98-4.9,4.88C532.06,302.43,531.99,335.16,531.99,367.9z M309.67,367.88c0,31.08,0,62.17,0,93.25
			c0,10.24,0.01,10.01,10.29,10.33c4.45,0.14,5.72-1,5.7-5.61c-0.17-63.32-0.11-126.65-0.11-189.97c0-11.03,0-10.86-11.03-11.06
			c-3.82-0.07-4.96,0.87-4.94,4.85C309.74,302.4,309.67,335.14,309.67,367.88z M516.11,368.38c0-31.08,0-62.17,0-93.25
			c0-10.24-0.01-10.01-10.29-10.33c-4.45-0.14-5.72,1-5.71,5.61c0.17,63.32,0.11,126.65,0.11,189.97c0,11.03,0,10.86,11.03,11.06
			c3.81,0.07,4.97-0.87,4.95-4.85C516.04,433.86,516.11,401.12,516.11,368.38z M392.92,225.2c-11.8,0-11.8,0-11.8,11.65
			c0,0.17,0,0.33,0,0.5c0,11.67,0,11.67,11.78,11.67c12.04,0,12.04,0,12.04-11.9C404.95,225.2,404.95,225.2,392.92,225.2z
			 M444.65,237.59c0-12.39,0-12.39-12.05-12.39c-11.77,0-11.77,0-11.77,11.68c0,12.14,0,12.14,12.3,12.14
			C444.65,249.02,444.65,249.02,444.65,237.59z M412.64,209.32c9.25,0,18.51-0.09,27.76,0.05c2.91,0.04,4.49-0.3,4.38-3.9
			c-0.1-3.16-0.83-4.19-4.13-4.17c-18.5,0.16-37.01,0.16-55.51,0c-3.3-0.03-4.04,1-4.13,4.16c-0.11,3.6,1.47,3.95,4.38,3.9
			C394.47,209.23,403.55,209.32,412.64,209.32z"/>
	</g>
</g>
</svg>
